<svg viewBox="0 0 100 100" xmlns="http://www.w3.org/2000/svg" id="Super-Phone-2--Streamline-Ux.svg" height="100" width="100"><desc>Super Phone 2 Streamline Illustration: https://streamlinehq.com</desc><path d="M69.168 26.162h-2.35a0.49 0.49 0 0 1 -0.49 -0.491v-2.42a0.49 0.49 0 0 1 0.49 -0.491h2.35" fill="none" stroke="#0f3f6c" stroke-linecap="round" stroke-linejoin="round" stroke-width="1"></path><path d="m75.745 26.162 -2.241 0" fill="none" stroke="#0f3f6c" stroke-linecap="round" stroke-linejoin="round" stroke-width="1"></path><path d="m87.823 26.162 -2.933 0" fill="none" stroke="#0f3f6c" stroke-linecap="round" stroke-linejoin="round" stroke-width="1"></path><path d="M92.159 22.76h2.351a0.49 0.49 0 0 1 0.49 0.491v2.42a0.49 0.49 0 0 1 -0.49 0.491h-2.351" fill="none" stroke="#0f3f6c" stroke-linecap="round" stroke-linejoin="round" stroke-width="1"></path><path d="m85.128 22.76 2.695 0" fill="none" stroke="#0f3f6c" stroke-linecap="round" stroke-linejoin="round" stroke-width="1"></path><path d="m73.504 22.76 2.624 0" fill="none" stroke="#0f3f6c" stroke-linecap="round" stroke-linejoin="round" stroke-width="1"></path><path d="M69.168 19.4a2.168 2.168 0 0 1 4.336 0v10.12a2.168 2.168 0 0 1 -4.336 0Z" fill="none" stroke="#0f3f6c" stroke-linecap="round" stroke-linejoin="round" stroke-width="1"></path><path d="M92.159 19.4a2.168 2.168 0 0 0 -4.336 0v10.12a2.168 2.168 0 0 0 4.336 0Z" fill="none" stroke="#0f3f6c" stroke-linecap="round" stroke-linejoin="round" stroke-width="1"></path><path d="m76.434 28.285 1.813 2 -0.312 8.552a4.453 4.453 0 0 0 -6.185 1.211 4.452 4.452 0 0 0 -5.637 -1.526" fill="none" stroke="#0f3f6c" stroke-linecap="round" stroke-linejoin="round" stroke-width="1"></path><path d="M70.468 46.268a4.473 4.473 0 0 0 1.282 -1.26 4.445 4.445 0 0 0 3.7 1.971 7.711 7.711 0 0 0 7.711 -7.711v-8.982l1.62 -1.916a1.961 1.961 0 0 0 0.459 -1.27v-0.942" fill="none" stroke="#0f3f6c" stroke-linecap="round" stroke-linejoin="round" stroke-width="1"></path><path d="M79.091 25.188v-1.855a1.537 1.537 0 1 0 -3.073 0v1.855a1.527 1.527 0 0 0 0.153 0.668" fill="none" stroke="#0f3f6c" stroke-linecap="round" stroke-linejoin="round" stroke-width="1"></path><path d="M80.255 26.679a1.539 1.539 0 0 0 1.909 -1.491v-1.855a1.537 1.537 0 1 0 -3.073 0v1.855a1.517 1.517 0 0 0 0.13 0.618" fill="none" stroke="#0f3f6c" stroke-linecap="round" stroke-linejoin="round" stroke-width="1"></path><path d="M85.238 23.333a1.537 1.537 0 1 0 -3.073 0v1.855a1.537 1.537 0 0 0 3.073 0Z" fill="none" stroke="#0f3f6c" stroke-linecap="round" stroke-linejoin="round" stroke-width="1"></path><path d="M75.528 27.308a0.98 0.98 0 0 0 0.98 0.98h2.555a1.246 1.246 0 1 0 0 -2.491h-2.555a0.98 0.98 0 0 0 -0.98 0.98Z" fill="none" stroke="#0f3f6c" stroke-linecap="round" stroke-linejoin="round" stroke-width="1"></path><path d="m69.365 68.637 -0.911 11.84a0.981 0.981 0 0 1 -0.978 0.905h-1.053" fill="none" stroke="#0f3f6c" stroke-linecap="round" stroke-linejoin="round" stroke-width="1"></path><path d="M83.511 80.477a0.98 0.98 0 0 0 0.978 0.905h2.851a0.98 0.98 0 0 0 0.969 -1.129l-1.787 -11.616H82.6Z" fill="none" stroke="#0f3f6c" stroke-linecap="round" stroke-linejoin="round" stroke-width="1"></path><path d="m78.132 65.695 -3.463 0" fill="none" stroke="#0f3f6c" stroke-linecap="round" stroke-linejoin="round" stroke-width="1"></path><path d="M67.952 68.637h18.57a0.981 0.981 0 0 0 0.98 -0.981v-0.98a0.981 0.981 0 0 0 -0.98 -0.981h-1.958" fill="none" stroke="#0f3f6c" stroke-linecap="round" stroke-linejoin="round" stroke-width="1"></path><path d="M65.3 49.591v28.39a3.4 3.4 0 0 1 -3.4 3.4H38.1a3.4 3.4 0 0 1 -0.973 -0.141" fill="none" stroke="#0f3f6c" stroke-linecap="round" stroke-linejoin="round" stroke-width="1"></path><path d="M34.7 31.815v-3.4a3.4 3.4 0 0 1 3.4 -3.4h23.8a3.4 3.4 0 0 1 3.4 3.4v3.4" fill="none" stroke="#0f3f6c" stroke-linecap="round" stroke-linejoin="round" stroke-width="1"></path><path d="m34.699 58.723 0 -21.505" fill="none" stroke="#0f3f6c" stroke-linecap="round" stroke-linejoin="round" stroke-width="1"></path><path d="m45.751 28.414 4.25 0" fill="none" stroke="#0f3f6c" stroke-linecap="round" stroke-linejoin="round" stroke-width="1"></path><path d="m53.401 28.414 0.85 0" fill="none" stroke="#0f3f6c" stroke-linecap="round" stroke-linejoin="round" stroke-width="1"></path><path d="M50 77a0.981 0.981 0 1 0 0.693 0.288A0.974 0.974 0 0 0 50 77Z" fill="#0f3f6c" stroke-width="1"></path><path d="M44.3 45.39a0.981 0.981 0 1 0 0.98 0.981 0.981 0.981 0 0 0 -0.98 -0.981Z" fill="#0f3f6c" stroke-width="1"></path><path d="M55.807 45.39a0.981 0.981 0 1 0 0.98 0.981 0.982 0.982 0 0 0 -0.98 -0.981Z" fill="#0f3f6c" stroke-width="1"></path><path d="M47.648 57.318a2.406 2.406 0 1 0 4.812 0 2.406 2.406 0 1 0 -4.812 0Z" fill="none" stroke="#0f3f6c" stroke-linecap="round" stroke-linejoin="round" stroke-width="1"></path><path d="m45.021 41.334 3.475 3.867" fill="none" stroke="#0f3f6c" stroke-linecap="round" stroke-linejoin="round" stroke-width="1"></path><path d="m55.887 41.334 -3.474 3.867" fill="none" stroke="#0f3f6c" stroke-linecap="round" stroke-linejoin="round" stroke-width="1"></path><path d="m33.567 31.815 32.975 0 0 5.402 -32.975 0Z" fill="none" stroke="#0f3f6c" stroke-linecap="round" stroke-linejoin="round" stroke-width="1"></path><path d="M71.75 40.049a4.412 4.412 0 0 1 0.484 0.948" fill="none" stroke="#0f3f6c" stroke-linecap="round" stroke-linejoin="round" stroke-width="1"></path><path d="M72.3 43.852a4.4 4.4 0 0 1 -0.554 1.156" fill="none" stroke="#0f3f6c" stroke-linecap="round" stroke-linejoin="round" stroke-width="1"></path><path d="m14.872 22.76 -2.695 0" fill="none" stroke="#0f3f6c" stroke-linecap="round" stroke-linejoin="round" stroke-width="1"></path><path d="m26.496 22.76 -2.624 0" fill="none" stroke="#0f3f6c" stroke-linecap="round" stroke-linejoin="round" stroke-width="1"></path><path d="M30.832 26.162h2.35a0.49 0.49 0 0 0 0.49 -0.491v-2.42a0.49 0.49 0 0 0 -0.49 -0.491h-2.35" fill="none" stroke="#0f3f6c" stroke-linecap="round" stroke-linejoin="round" stroke-width="1"></path><path d="m24.255 26.162 2.241 0" fill="none" stroke="#0f3f6c" stroke-linecap="round" stroke-linejoin="round" stroke-width="1"></path><path d="m12.177 26.162 2.583 0" fill="none" stroke="#0f3f6c" stroke-linecap="round" stroke-linejoin="round" stroke-width="1"></path><path d="M7.841 22.76H5.49a0.49 0.49 0 0 0 -0.49 0.491v2.42a0.49 0.49 0 0 0 0.49 0.491h2.351" fill="none" stroke="#0f3f6c" stroke-linecap="round" stroke-linejoin="round" stroke-width="1"></path><path d="M30.832 19.4a2.168 2.168 0 0 0 -4.336 0v10.12a2.168 2.168 0 1 0 4.336 0Z" fill="none" stroke="#0f3f6c" stroke-linecap="round" stroke-linejoin="round" stroke-width="1"></path><path d="M7.841 19.4a2.168 2.168 0 0 1 4.336 0v10.12a2.168 2.168 0 1 1 -4.336 0Z" fill="none" stroke="#0f3f6c" stroke-linecap="round" stroke-linejoin="round" stroke-width="1"></path><path d="m23.566 28.285 -1.813 2 0.312 8.552a4.453 4.453 0 0 1 6.185 1.211 4.45 4.45 0 0 1 6.45 -1.016v6.994a4.452 4.452 0 0 1 -6.449 -1.018 4.445 4.445 0 0 1 -3.7 1.971 7.711 7.711 0 0 1 -7.711 -7.711v-8.982l-1.62 -1.916a1.961 1.961 0 0 1 -0.46 -1.27v-0.942" fill="none" stroke="#0f3f6c" stroke-linecap="round" stroke-linejoin="round" stroke-width="1"></path><path d="M20.909 25.188v-1.855a1.537 1.537 0 1 1 3.073 0v1.855a1.527 1.527 0 0 1 -0.153 0.668" fill="none" stroke="#0f3f6c" stroke-linecap="round" stroke-linejoin="round" stroke-width="1"></path><path d="M19.745 26.679a1.539 1.539 0 0 1 -1.909 -1.491v-1.855a1.537 1.537 0 1 1 3.073 0v1.855a1.517 1.517 0 0 1 -0.13 0.618" fill="none" stroke="#0f3f6c" stroke-linecap="round" stroke-linejoin="round" stroke-width="1"></path><path d="M14.762 23.333a1.537 1.537 0 1 1 3.073 0v1.855a1.537 1.537 0 0 1 -3.073 0Z" fill="none" stroke="#0f3f6c" stroke-linecap="round" stroke-linejoin="round" stroke-width="1"></path><path d="M24.472 27.308a0.98 0.98 0 0 1 -0.98 0.98h-2.555a1.246 1.246 0 1 1 0 -2.491h2.555a0.98 0.98 0 0 1 0.98 0.98Z" fill="none" stroke="#0f3f6c" stroke-linecap="round" stroke-linejoin="round" stroke-width="1"></path><path d="M28.25 40.049a4.412 4.412 0 0 0 -0.484 0.948" fill="none" stroke="#0f3f6c" stroke-linecap="round" stroke-linejoin="round" stroke-width="1"></path><path d="M27.7 43.852a4.4 4.4 0 0 0 0.554 1.156" fill="none" stroke="#0f3f6c" stroke-linecap="round" stroke-linejoin="round" stroke-width="1"></path><path d="m63.835 37.892 -4.762 8.235a0.915 0.915 0 0 0 -0.022 0.868 0.806 0.806 0 0 0 0.7 0.452 14.727 14.727 0 0 1 2.964 0.39" fill="none" stroke="#0f3f6c" stroke-linecap="round" stroke-linejoin="round" stroke-width="1"></path><path d="m65.236 37.218 5.769 9.982a1.023 1.023 0 0 1 0.024 0.971 0.9 0.9 0 0 1 -0.778 0.507 14.9 14.9 0 0 0 -6.376 1.56 0.863 0.863 0 0 1 -0.94 -0.06 0.994 0.994 0 0 1 -0.386 -0.915l1.362 -12.041Z" fill="none" stroke="#0f3f6c" stroke-linecap="round" stroke-linejoin="round" stroke-width="1"></path><path d="M71.453 58.662a4.252 4.252 0 1 0 4.252 4.252 4.252 4.252 0 0 0 -4.252 -4.252Zm0 5.9a1.649 1.649 0 1 1 1.647 -1.648 1.649 1.649 0 0 1 -1.647 1.649Z" fill="none" stroke="#0f3f6c" stroke-linecap="round" stroke-linejoin="round" stroke-width="1"></path><path d="M81.348 58.662a4.252 4.252 0 1 0 4.252 4.252 4.252 4.252 0 0 0 -4.252 -4.252Zm0 5.9A1.649 1.649 0 1 1 83 62.914a1.649 1.649 0 0 1 -1.652 1.649Z" fill="none" stroke="#0f3f6c" stroke-linecap="round" stroke-linejoin="round" stroke-width="1"></path><path d="m32.389 69.561 1.979 -4.623a1.476 1.476 0 0 0 -1.357 -2.056h-8.737a1.475 1.475 0 0 0 -1.356 2.056L24.9 69.56" fill="none" stroke="#0f3f6c" stroke-linecap="round" stroke-linejoin="round" stroke-width="1"></path><path d="m23.4 70.79 -2.192 -5.121a3.331 3.331 0 0 1 3.062 -4.643h8.737a3.332 3.332 0 0 1 3.064 4.643l-2.19 5.121" fill="none" stroke="#0f3f6c" stroke-linecap="round" stroke-linejoin="round" stroke-width="1"></path><path d="M21.509 75.633a7.134 7.134 0 1 0 14.268 0 7.134 7.134 0 1 0 -14.268 0Z" fill="none" stroke="#0f3f6c" stroke-linecap="round" stroke-linejoin="round" stroke-width="1"></path><path d="m65.303 74.58 -26.925 0" fill="none" stroke="#0f3f6c" stroke-linecap="round" stroke-linejoin="round" stroke-width="1"></path></svg>