<svg viewBox="0 0 100 100" xmlns="http://www.w3.org/2000/svg" id="Super-Phone-1--Streamline-Ux.svg" height="100" width="100"><desc>Super Phone 1 Streamline Illustration: https://streamlinehq.com</desc><path d="M36.761 77.91v-0.363a6.541 6.541 0 0 0 -1.525 -4.206" fill="none" stroke="#0f3f6c" stroke-linecap="round" stroke-linejoin="round" stroke-width="1"></path><path d="M36.954 70.3a9.9 9.9 0 0 1 3.152 7.248v0.342" fill="none" stroke="#0f3f6c" stroke-linecap="round" stroke-linejoin="round" stroke-width="1"></path><path d="M11.342 76.71a10.007 10.007 0 0 0 3.026 -3.184" fill="none" stroke="#0f3f6c" stroke-linecap="round" stroke-linejoin="round" stroke-width="1"></path><path d="M12.03 70.681a6.606 6.606 0 0 1 -2.63 3.305" fill="none" stroke="#0f3f6c" stroke-linecap="round" stroke-linejoin="round" stroke-width="1"></path><path d="m38.025 51.697 8.927 -1.493 -0.529 -3.16 -8.209 1.373" fill="none" stroke="#0f3f6c" stroke-linecap="round" stroke-linejoin="round" stroke-width="1"></path><path d="m50.529 51.352 5.709 -0.149a3.839 3.839 0 0 0 3.722 -3.466l0.1 -1.054a4.882 4.882 0 0 0 -5.4 -5.323c-0.1 0.012 -0.207 0.026 -0.311 0.044a7.954 7.954 0 0 0 -4.933 3.342Z" fill="none" stroke="#0f3f6c" stroke-linecap="round" stroke-linejoin="round" stroke-width="1"></path><path d="M52.551 46.572a2.4 2.4 0 0 1 0.792 4.734" fill="none" stroke="#0f3f6c" stroke-linecap="round" stroke-linejoin="round" stroke-width="1"></path><path d="M47.052 50.8a1.114 1.114 0 0 0 1.283 0.916l2.194 -0.367 -1.105 -6.606 -2.193 0.366a1.115 1.115 0 0 0 -0.916 1.284Z" fill="none" stroke="#0f3f6c" stroke-linecap="round" stroke-linejoin="round" stroke-width="1"></path><path d="M56.395 22.467a2.141 2.141 0 1 0 4.282 0 2.141 2.141 0 1 0 -4.282 0Z" fill="none" stroke="#0f3f6c" stroke-linecap="round" stroke-linejoin="round" stroke-width="1"></path><path d="M60.08 46.438a54.331 54.331 0 0 1 -0.375 22.773 8.168 8.168 0 0 0 5.6 9.507l2.25 0.689a8.2 8.2 0 0 0 10.4 -6.13c3.743 -17.605 1.825 -33.466 -5.721 -47.345a8.181 8.181 0 0 0 -11.613 -2.985" fill="none" stroke="#0f3f6c" stroke-linecap="round" stroke-linejoin="round" stroke-width="1"></path><path d="m58.446 24.605 -0.082 0 -0.113 0.085a8.177 8.177 0 0 0 -2.326 10.41 43.257 43.257 0 0 1 3.483 8.633" fill="none" stroke="#0f3f6c" stroke-linecap="round" stroke-linejoin="round" stroke-width="1"></path><path d="M58.536 22.467c-4.144 -0.174 -5.654 -2.38 -6.587 -5.706" fill="none" stroke="#0f3f6c" stroke-linecap="round" stroke-linejoin="round" stroke-width="1"></path><path d="M83.626 56.112a0.771 0.771 0 0 1 1.06 -1.06l6.4 3.92a0.772 0.772 0 0 1 0.145 1.2l-2.473 2.489a0.772 0.772 0 0 1 -1.2 -0.141Z" fill="none" stroke="#0f3f6c" stroke-linecap="round" stroke-linejoin="round" stroke-width="1"></path><path d="M82.36 38.59a0.771 0.771 0 0 1 -1.06 -1.06l3.92 -6.4a0.771 0.771 0 0 1 1.2 -0.144l2.489 2.473a0.771 0.771 0 0 1 -0.141 1.2Z" fill="none" stroke="#0f3f6c" stroke-linecap="round" stroke-linejoin="round" stroke-width="1"></path><path d="M83.781 47.543a0.771 0.771 0 0 1 0 -1.5l10.252 -2.463a0.771 0.771 0 0 1 0.951 0.747L95 49.255a0.771 0.771 0 0 1 -0.951 0.753Z" fill="none" stroke="#0f3f6c" stroke-linecap="round" stroke-linejoin="round" stroke-width="1"></path><path d="m13.434 46.3 0.82 -14.241a2.766 2.766 0 0 1 2.767 -2.766h19.368a2.766 2.766 0 0 1 2.767 2.766l-2.231 38.733a2.768 2.768 0 0 1 -2.767 2.767H14.791a2.767 2.767 0 0 1 -2.767 -2.767l1.124 -19.524" fill="none" stroke="#0f3f6c" stroke-linecap="round" stroke-linejoin="round" stroke-width="1"></path><path d="m23.247 32.056 3.458 0" fill="none" stroke="#0f3f6c" stroke-linecap="round" stroke-linejoin="round" stroke-width="1"></path><path d="m29.472 32.056 0.691 0" fill="none" stroke="#0f3f6c" stroke-linecap="round" stroke-linejoin="round" stroke-width="1"></path><path d="m24.474 70.782 -0.006 0 0.006 0m0 -1a1.009 1.009 0 1 0 0.714 0.3 1.006 1.006 0 0 0 -0.714 -0.3Z" fill="#0f3f6c" stroke-width="1"></path><path d="M23.253 40.483a1.009 1.009 0 1 0 1.008 1.009 1.01 1.01 0 0 0 -1.008 -1.009Z" fill="#0f3f6c" stroke-width="1"></path><path d="M31.875 40.483a1.009 1.009 0 1 0 1.009 1.009 1.01 1.01 0 0 0 -1.009 -1.009Z" fill="#0f3f6c" stroke-width="1"></path><path d="m32.814 37.361 -1.877 1.326" fill="none" stroke="#0f3f6c" stroke-linecap="round" stroke-linejoin="round" stroke-width="1"></path><path d="m22.961 37.361 1.878 1.326" fill="none" stroke="#0f3f6c" stroke-linecap="round" stroke-linejoin="round" stroke-width="1"></path><path d="M43.577 83.239a0.56 0.56 0 0 0 0.545 -0.678 3.139 3.139 0 0 0 -3.063 -2.461h-0.035v-1.113a1.115 1.115 0 0 0 -1.115 -1.115h-2.858a1.115 1.115 0 0 0 -1.115 1.115v3.136a1.116 1.116 0 0 0 1.115 1.116Z" fill="none" stroke="#0f3f6c" stroke-linecap="round" stroke-linejoin="round" stroke-width="1"></path><path d="M8.971 82.619a0.558 0.558 0 0 0 0.868 0.054 3.139 3.139 0 0 0 0.24 -3.92l-0.02 -0.029 0.91 -0.643a1.116 1.116 0 0 0 0.267 -1.555l-1.649 -2.333a1.114 1.114 0 0 0 -1.554 -0.267l-2.561 1.81a1.114 1.114 0 0 0 -0.267 1.554Z" fill="none" stroke="#0f3f6c" stroke-linecap="round" stroke-linejoin="round" stroke-width="1"></path><path d="m23.846 56.271 -0.338 0.311a4.507 4.507 0 0 1 -3.039 1.181c-0.114 0 -0.228 0 -0.344 -0.013a4.5 4.5 0 0 1 -3.161 -1.68l-5.927 -7.461a1.673 1.673 0 0 1 2.62 -2.082l5.926 7.461a1.138 1.138 0 0 0 1.662 0.13l0.389 -0.358" fill="none" stroke="#0f3f6c" stroke-linecap="round" stroke-linejoin="round" stroke-width="1"></path><path d="m27.518 55.388 4.769 -3.143a3.841 3.841 0 0 0 1.329 -4.91l-0.47 -0.949a4.881 4.881 0 0 0 -7.392 -1.669c-0.082 0.064 -0.162 0.131 -0.241 0.2a7.956 7.956 0 0 0 -2.423 5.444Z" fill="none" stroke="#0f3f6c" stroke-linecap="round" stroke-linejoin="round" stroke-width="1"></path><path d="M24.275 56.758a1.116 1.116 0 0 0 1.574 0.1l1.669 -1.47 -4.428 -5.026 -1.669 1.469a1.115 1.115 0 0 0 -0.1 1.574Z" fill="none" stroke="#0f3f6c" stroke-linecap="round" stroke-linejoin="round" stroke-width="1"></path><path d="m38.996 34.823 -24.901 0" fill="none" stroke="#0f3f6c" stroke-linecap="round" stroke-linejoin="round" stroke-width="1"></path><path d="m12.183 68.025 24.902 0" fill="none" stroke="#0f3f6c" stroke-linecap="round" stroke-linejoin="round" stroke-width="1"></path><path d="m60.004 45.323 17.736 -5.498" fill="none" stroke="#0f3f6c" stroke-linecap="round" stroke-linejoin="round" stroke-width="1"></path><path d="m74.831 31.304 -16.56 8.97" fill="none" stroke="#0f3f6c" stroke-linecap="round" stroke-linejoin="round" stroke-width="1"></path></svg>