<svg viewBox="0 0 100 100" xmlns="http://www.w3.org/2000/svg" id="Calendar-Deadline--Streamline-Ux.svg" height="100" width="100"><desc>Calendar Deadline Streamline Illustration: https://streamlinehq.com</desc><path d="M13.711 45.545 5.924 46.78a1.1 1.1 0 0 0 -0.91 1.253l5.871 37.014a1.1 1.1 0 0 0 1.253 0.91l7.787 -1.235" fill="none" stroke="#0f3f6c" stroke-linecap="round" stroke-linejoin="round" stroke-width="1"></path><path d="m9.154 53.166 -1.067 -6.729" fill="none" stroke="#0f3f6c" stroke-linecap="round" stroke-linejoin="round" stroke-width="1"></path><path d="m9.978 58.357 -0.206 -1.298" fill="none" stroke="#0f3f6c" stroke-linecap="round" stroke-linejoin="round" stroke-width="1"></path><path d="m21.868 44.251 -8.157 1.294A1.094 1.094 0 0 0 12.8 46.8l5.871 37.014a1.1 1.1 0 0 0 1.253 0.91L56.7 78.888a1.094 1.094 0 0 0 0.91 -1.253l-1.064 -6.706" fill="none" stroke="#0f3f6c" stroke-linecap="round" stroke-linejoin="round" stroke-width="1"></path><path d="m33.766 42.363 -9.657 1.532" fill="none" stroke="#0f3f6c" stroke-linecap="round" stroke-linejoin="round" stroke-width="1"></path><path d="m45.661 40.477 -9.655 1.531" fill="none" stroke="#0f3f6c" stroke-linecap="round" stroke-linejoin="round" stroke-width="1"></path><path d="m52.254 43.867 -0.515 -3.246a1.1 1.1 0 0 0 -1.253 -0.91l-2.582 0.41" fill="none" stroke="#0f3f6c" stroke-linecap="round" stroke-linejoin="round" stroke-width="1"></path><path d="M15.599 85.408 13.54 72.429" fill="none" stroke="#0f3f6c" stroke-linecap="round" stroke-linejoin="round" stroke-width="1"></path><path d="M54.574 57.514a15.773 15.773 0 0 0 17.547 10.945l-38.937 6.176a15.77 15.77 0 0 1 -18.046 -13.1l-0.783 -4.94" fill="none" stroke="#0f3f6c" stroke-linecap="round" stroke-linejoin="round" stroke-width="1"></path><path d="M31.9 37.019a8.168 8.168 0 0 0 -0.3 3.826 7.81 7.81 0 0 0 0.494 1.784m2.365 -6.006a6.021 6.021 0 1 1 10.073 6.55 1.114 1.114 0 0 0 -0.232 0.847 1.1 1.1 0 0 0 1.972 0.474 8.168 8.168 0 0 0 1.256 -7.461A8.214 8.214 0 0 0 32.878 35" fill="none" stroke="#0f3f6c" stroke-linecap="round" stroke-linejoin="round" stroke-width="1"></path><path d="M20 38.906a8.168 8.168 0 0 0 -0.3 3.826 7.884 7.884 0 0 0 0.494 1.785m2.366 -6.006a6.021 6.021 0 1 1 10.073 6.55 1.111 1.111 0 0 0 -0.232 0.846 1.1 1.1 0 0 0 1.971 0.474 8.162 8.162 0 0 0 1.256 -7.461 8.214 8.214 0 0 0 -14.644 -2.033" fill="none" stroke="#0f3f6c" stroke-linecap="round" stroke-linejoin="round" stroke-width="1"></path><path d="M7.8 44.619a7.817 7.817 0 0 0 0.493 1.781l2.25 -0.357a5.665 5.665 0 0 1 -0.58 -1.771 6.023 6.023 0 1 1 10.769 2.672 1.112 1.112 0 0 0 -0.232 0.846 1.1 1.1 0 0 0 1.972 0.475 8.167 8.167 0 0 0 1.255 -7.462A8.213 8.213 0 0 0 7.8 44.619Z" fill="none" stroke="#0f3f6c" stroke-linecap="round" stroke-linejoin="round" stroke-width="1"></path><path d="m14.355 56.591 34.709 -5.506" fill="none" stroke="#0f3f6c" stroke-linecap="round" stroke-linejoin="round" stroke-width="1"></path><path d="m25.071 54.891 0.752 4.744a15.912 15.912 0 0 0 18.046 13.3" fill="none" stroke="#0f3f6c" stroke-linecap="round" stroke-linejoin="round" stroke-width="1"></path><path d="m34.9 53.332 0.717 4.524a16.177 16.177 0 0 0 18.246 13.5" fill="none" stroke="#0f3f6c" stroke-linecap="round" stroke-linejoin="round" stroke-width="1"></path><path d="m45.112 51.712 0.676 4.257c1.361 8.584 9.019 14.8 17.317 13.92" fill="none" stroke="#0f3f6c" stroke-linecap="round" stroke-linejoin="round" stroke-width="1"></path><path d="m15.967 64.659 38.457 -7.109" fill="none" stroke="#0f3f6c" stroke-linecap="round" stroke-linejoin="round" stroke-width="1"></path><path d="m20.58 71.143 37.676 -7.355" fill="none" stroke="#0f3f6c" stroke-linecap="round" stroke-linejoin="round" stroke-width="1"></path><path d="M72.463 14.12a20.568 20.568 0 0 0 -16.9 28.738L50.605 54.2a1.028 1.028 0 0 0 1.233 1.4l11.81 -3.473a20.575 20.575 0 1 0 8.815 -38.007Z" fill="none" stroke="#0f3f6c" stroke-linecap="round" stroke-linejoin="round" stroke-width="1"></path><path d="M75.128 36.021a0.824 0.824 0 0 1 -1.6 0c-3.224 -12.707 -3.089 -12.135 -3.1 -12.262a3.917 3.917 0 1 1 7.8 0c-0.011 0.127 0.125 -0.449 -3.1 12.262Z" fill="none" stroke="#0f3f6c" stroke-linecap="round" stroke-linejoin="round" stroke-width="1"></path><path d="M74.329 46.994a3.429 3.429 0 1 1 3.428 -3.429 3.432 3.432 0 0 1 -3.428 3.429Z" fill="none" stroke="#0f3f6c" stroke-linecap="round" stroke-linejoin="round" stroke-width="1"></path></svg>