<svg viewBox="0 0 100 100" xmlns="http://www.w3.org/2000/svg" id="Work-Calendar--Streamline-Ux.svg" height="100" width="100"><desc>Work Calendar Streamline Illustration: https://streamlinehq.com</desc><path d="M92.8647 94.636H7.1353C4.0808 94.6353 1.6049 92.1589 1.6049 89.1044V18.5868C1.6049 15.5322 4.0808 13.0559 7.1353 13.0552H92.8647C95.9192 13.0559 98.3951 15.5323 98.3951 18.5868V89.1044C98.3951 92.1589 95.9192 94.6353 92.8647 94.636Z" fill="none" stroke="#0f3f6c" stroke-linecap="round" stroke-linejoin="round" stroke-width="1"></path><path d="M98.3951 54.537V89.1044C98.3951 92.1589 95.9192 94.6353 92.8647 94.636H54.1487S76.2713 87.7227 98.3951 54.537Z" fill="none" stroke="#0f3f6c" stroke-linecap="round" stroke-linejoin="round" stroke-width="1"></path><path d="M98.3951 37.9448H1.6049V18.5868C1.6049 15.5323 4.0808 13.0559 7.1353 13.0552H92.8647C95.9192 13.0559 98.3951 15.5323 98.3951 18.5868Z" fill="none" stroke="#0f3f6c" stroke-linecap="round" stroke-linejoin="round" stroke-width="1"></path><path d="M22.3459 21.3513C15.9595 21.3513 11.968 14.4379 15.1612 8.9072C18.3544 3.3764 26.3373 3.3764 29.5305 8.9072C30.2586 10.1683 30.642 11.5989 30.642 13.0552" fill="none" stroke="#0f3f6c" stroke-linecap="round" stroke-linejoin="round" stroke-width="1"></path><path d="M51.3829 21.3513C44.9965 21.3513 41.0051 14.4379 44.1982 8.9072C47.3914 3.3764 55.3744 3.3764 58.5675 8.9072C59.2957 10.1683 59.679 11.5989 59.679 13.0552" fill="none" stroke="#0f3f6c" stroke-linecap="round" stroke-linejoin="round" stroke-width="1"></path><path d="M80.4199 21.3513C74.0336 21.351 70.042 14.4374 73.2355 8.9068C76.4289 3.3762 84.4118 3.3766 87.6048 8.9075C88.3328 10.1686 88.7161 11.5991 88.7161 13.0552" fill="none" stroke="#0f3f6c" stroke-linecap="round" stroke-linejoin="round" stroke-width="1"></path><path d="M1.6049 51.7713H98.3951" fill="none" stroke="#0f3f6c" stroke-linecap="round" stroke-linejoin="round" stroke-width="1"></path><path d="M1.6049 65.5989H59.454" fill="none" stroke="#0f3f6c" stroke-linecap="round" stroke-linejoin="round" stroke-width="1"></path><path d="M1.6049 79.4254H59.454" fill="none" stroke="#0f3f6c" stroke-linecap="round" stroke-linejoin="round" stroke-width="1"></path><path d="M20.963 37.9448V94.636" fill="none" stroke="#0f3f6c" stroke-linecap="round" stroke-linejoin="round" stroke-width="1"></path><path d="M40.321 37.9448V94.636" fill="none" stroke="#0f3f6c" stroke-linecap="round" stroke-linejoin="round" stroke-width="1"></path><path d="M59.679 37.9448V56.7088" fill="none" stroke="#0f3f6c" stroke-linecap="round" stroke-linejoin="round" stroke-width="1"></path><path d="M79.037 37.9448V59.2338" fill="none" stroke="#0f3f6c" stroke-linecap="round" stroke-linejoin="round" stroke-width="1"></path><path d="M1.6049 51.7713H20.963V65.5989H1.6049Z" fill="none" stroke="#0f3f6c" stroke-linecap="round" stroke-linejoin="round" stroke-width="1"></path><path d="M20.963 79.4254H40.321V94.6348H20.963Z" fill="none" stroke="#0f3f6c" stroke-linecap="round" stroke-linejoin="round" stroke-width="1"></path><path d="M40.321 37.9448H59.679V51.7725H40.321Z" fill="none" stroke="#0f3f6c" stroke-linecap="round" stroke-linejoin="round" stroke-width="1"></path><path d="M98.3951 54.537C76.2713 87.7227 54.1487 94.636 54.1487 94.636C60.5154 83.5006 61.7903 70.1663 57.6488 58.0263C57.3523 57.1957 58.0661 56.3555 58.9337 56.5139C58.9614 56.519 58.9888 56.5251 59.016 56.5321C65.4017 58.2731 84.6678 62.544 98.3951 54.537Z" fill="none" stroke="#0f3f6c" stroke-linecap="round" stroke-linejoin="round" stroke-width="1"></path><path d="M36.1723 29.6487H63.8277" fill="none" stroke="#0f3f6c" stroke-linecap="round" stroke-linejoin="round" stroke-width="1"></path><path d="M79.037 29.6487H90.0989" fill="none" stroke="#0f3f6c" stroke-linecap="round" stroke-linejoin="round" stroke-width="1"></path><path d="M20.963 29.6487H9.9011" fill="none" stroke="#0f3f6c" stroke-linecap="round" stroke-linejoin="round" stroke-width="1"></path></svg>