<svg xmlns="http://www.w3.org/2000/svg" fill="none" viewBox="0 0 100 100" id="Podcast-Inreview-2--Streamline-Ux.svg" height="100" width="100"><desc>Podcast Inreview 2 Streamline Illustration: https://streamlinehq.com</desc><path fill="#e5e7eb" d="M50 99C77.062 99 99 77.062 99 50S77.062 1 50 1S1 22.938 1 50S22.938 99 50 99Z" stroke-width="1"></path><path fill="#f9faf8" stroke="#0f3f6c" stroke-linecap="round" stroke-linejoin="round" d="M26.3661 62.6432H7.1054V43.3544C7.1054 42.0548 7.6216 40.8085 8.5406 39.8896C9.4595 38.9706 10.7058 38.4544 12.0054 38.4544H26.3661V62.6432Z" stroke-width="1"></path><path fill="#f9faf8" stroke="#0f3f6c" stroke-linecap="round" stroke-linejoin="round" d="M71.7131 62.6432H92.3311V44.4103C92.3311 42.8307 91.7035 41.3159 90.5866 40.1989C89.4696 39.0819 87.9548 38.4544 86.3751 38.4544H71.7131V62.6432Z" stroke-width="1"></path><path stroke="#0f3f6c" stroke-linecap="round" stroke-linejoin="round" d="M71.7254 62.6432V61.7465" stroke-width="1"></path><path fill="#0f3f6c" d="M94.0645 68.0185H5.9355V92.7758C5.9355 93.1007 6.0645 93.4123 6.2943 93.642C6.524 93.8717 6.8357 94.0008 7.1605 94.0008H92.8395C93.1643 94.0008 93.476 93.8717 93.7057 93.642S94.0645 93.1007 94.0645 92.7758V68.0185Z" stroke-width="1"></path><path stroke="#0f3f6c" stroke-linecap="round" stroke-linejoin="round" d="M94.0645 68.0185H5.9355V92.7758C5.9355 93.1007 6.0645 93.4123 6.2943 93.642C6.524 93.8717 6.8357 94.0008 7.1605 94.0008H92.8395C93.1643 94.0008 93.476 93.8717 93.7057 93.642S94.0645 93.1007 94.0645 92.7758V68.0185Z" stroke-width="1"></path><path fill="#f9faf8" stroke="#0f3f6c" stroke-linecap="round" stroke-linejoin="round" d="M96.4226 62.6432H3.5774C2.9008 62.6432 2.3524 63.1917 2.3524 63.8682V66.7935C2.3524 67.4701 2.9008 68.0185 3.5774 68.0185H96.4226C97.0992 68.0185 97.6476 67.4701 97.6476 66.7935V63.8682C97.6476 63.1917 97.0992 62.6432 96.4226 62.6432Z" stroke-width="1"></path><path stroke="#0f3f6c" stroke-linecap="round" stroke-linejoin="round" d="M54.1356 2.5839L47.4202 12.4733V18.7453" stroke-width="1"></path><path stroke="#0f3f6c" stroke-linecap="round" stroke-linejoin="round" d="M57.9748 3.1033L51.0033 13.3688V18.7454" stroke-width="1"></path><path fill="#0f3f6c" stroke="#0f3f6c" stroke-linecap="round" stroke-linejoin="round" d="M51.8988 13.3725C51.8973 13.9038 51.7384 14.4227 51.4422 14.8637C51.146 15.3047 50.7257 15.6481 50.2345 15.8503C49.7432 16.0525 49.2031 16.1047 48.6823 16.0002C48.1614 15.8958 47.6832 15.6391 47.3081 15.263C46.9328 14.8868 46.6777 14.408 46.5745 13.8867C46.4714 13.3656 46.525 12.8257 46.7288 12.3349C46.9323 11.8443 47.2768 11.425 47.7187 11.1299C48.1605 10.8349 48.6798 10.6775 49.2111 10.6775C49.5646 10.6775 49.9147 10.7472 50.2413 10.8828C50.5679 11.0183 50.8645 11.217 51.1141 11.4673C51.3638 11.7176 51.5616 12.0148 51.6963 12.3417C51.8309 12.6686 51.8997 13.019 51.8988 13.3725Z" stroke-width="1"></path><path fill="#f9faf8" stroke="#0f3f6c" stroke-linecap="round" stroke-linejoin="round" d="M52.7955 25.01H45.628V19.9703C45.628 19.6455 45.7571 19.3338 45.9868 19.1041C46.2166 18.8743 46.5281 18.7453 46.853 18.7453H51.5705C51.8953 18.7453 52.207 18.8743 52.4367 19.1041C52.6665 19.3338 52.7955 19.6455 52.7955 19.9703V25.01Z" stroke-width="1"></path><path fill="#0f3f6c" stroke="#0f3f6c" stroke-linecap="round" stroke-linejoin="round" d="M52.7955 27.705C52.7782 28.644 52.3929 29.5387 51.7227 30.1965C51.0525 30.8545 50.1509 31.2231 49.2117 31.2231C48.2726 31.2231 47.3709 30.8545 46.7007 30.1965C46.0306 29.5387 45.6454 28.644 45.628 27.705V25.01H52.7955V27.705Z" stroke-width="1"></path><path fill="#f9faf8" stroke="#0f3f6c" stroke-linecap="round" stroke-linejoin="round" d="M65.9152 85.035H34.0836C33.4338 85.035 32.8107 84.7769 32.3512 84.3174S31.6336 83.2347 31.6336 82.585V68.0185H68.3652V82.585C68.3652 82.9067 68.3019 83.2253 68.1788 83.5226C68.0557 83.8198 67.8751 84.0899 67.6476 84.3174C67.4201 84.5449 67.15 84.7254 66.8528 84.8486C66.5555 84.9717 66.237 85.035 65.9152 85.035Z" stroke-width="1"></path><path fill="#0f3f6c" stroke="#0f3f6c" stroke-linecap="round" stroke-linejoin="round" d="M62.6616 71.6029H37.3384C36.6618 71.6029 36.1134 72.1513 36.1134 72.8279V80.2318C36.1134 80.9083 36.6618 81.4568 37.3384 81.4568H62.6616C63.3382 81.4568 63.8866 80.9083 63.8866 80.2318V72.8279C63.8866 72.1513 63.3382 71.6029 62.6616 71.6029Z" stroke-width="1"></path><path fill="#f9faf8" d="M38.4764 76.6425C38.454 76.3017 38.5017 75.96 38.6166 75.6384C38.7315 75.3167 38.9112 75.0222 39.1444 74.7728C39.3778 74.5234 39.6598 74.3245 39.973 74.1885C40.2862 74.0524 40.6241 73.9821 40.9656 73.9818C41.3057 73.987 41.6411 74.0606 41.952 74.1983C42.2629 74.3361 42.5428 74.535 42.7751 74.7835C43.0073 75.0318 43.1872 75.3244 43.3037 75.6439C43.4203 75.9633 43.4713 76.303 43.4536 76.6425C43.4763 76.9832 43.4287 77.325 43.314 77.6467C43.1992 77.9682 43.0196 78.2628 42.7862 78.5123C42.553 78.7617 42.2709 78.9604 41.9576 79.0963C41.6444 79.2322 41.3066 79.3024 40.965 79.3024C40.6235 79.3024 40.2856 79.2322 39.9724 79.0963C39.6592 78.9604 39.377 78.7617 39.1438 78.5123C38.9105 78.2628 38.7309 77.9682 38.6161 77.6467C38.5013 77.325 38.4538 76.9832 38.4764 76.6425ZM42.3254 76.6425C42.3254 75.7691 41.8697 74.9802 40.9656 74.9802C40.0616 74.9802 39.6047 75.7691 39.6047 76.6425S40.0469 78.3073 40.9656 78.3073S42.3254 77.5258 42.3254 76.6425Z" stroke-width="1"></path><path fill="#f9faf8" d="M43.864 74.5894C43.8574 74.5154 43.8668 74.4411 43.8914 74.371C43.916 74.3011 43.9554 74.2371 44.0068 74.1836S44.1205 74.0882 44.1895 74.0608C44.2584 74.0334 44.3326 74.021 44.4067 74.0247C44.5849 74.043 44.7488 74.131 44.8624 74.2697L47.1556 77.3322H47.1703V74.5894C47.1667 74.5161 47.1782 74.4428 47.2038 74.374C47.2296 74.3051 47.2689 74.2423 47.3196 74.1891C47.3702 74.1359 47.4312 74.0937 47.4987 74.0648C47.5662 74.0359 47.6388 74.0209 47.7123 74.0209C47.7857 74.0209 47.8583 74.0359 47.926 74.0648C47.9935 74.0937 48.0543 74.1359 48.105 74.1891C48.1558 74.2423 48.1951 74.3051 48.2207 74.374C48.2464 74.4428 48.2578 74.5161 48.2544 74.5894V78.6981C48.2611 78.7718 48.2519 78.8463 48.2274 78.9163C48.2029 78.9862 48.1637 79.05 48.1123 79.1034C48.0609 79.157 47.9987 79.1987 47.9298 79.2259C47.8609 79.2533 47.7869 79.2654 47.7129 79.2616C47.536 79.2441 47.3729 79.1589 47.2572 79.0239L44.9628 75.9994H44.9493V78.6944C44.9493 78.8384 44.8921 78.9764 44.7903 79.0781C44.6887 79.1799 44.5506 79.2371 44.4067 79.2371C44.2627 79.2371 44.1247 79.1799 44.0229 79.0781C43.9212 78.9764 43.864 78.8384 43.864 78.6944V74.5894Z" stroke-width="1"></path><path fill="#f9faf8" d="M52.0029 74.5821C52.0541 74.4145 52.1558 74.2668 52.2942 74.1593C52.4326 74.0519 52.6008 73.9899 52.7758 73.9818C52.9524 73.985 53.1231 74.0452 53.2627 74.1533C53.4022 74.2615 53.503 74.4119 53.55 74.5821L54.9674 78.5168C55.0015 78.6024 55.0214 78.6931 55.0262 78.7851C55.0256 78.8495 55.0121 78.9131 54.9865 78.9721C54.9608 79.0312 54.9236 79.0844 54.877 79.1289C54.8304 79.1734 54.7754 79.2081 54.7151 79.2308C54.6549 79.2536 54.5907 79.264 54.5264 79.2616C54.4085 79.2704 54.2912 79.2378 54.1948 79.1693C54.0984 79.101 54.0289 79.0009 53.9984 78.8867L53.7816 78.2056H51.7701L51.5533 78.8794C51.5254 78.9942 51.4578 79.0954 51.3626 79.1653C51.2674 79.2351 51.1505 79.2693 51.0327 79.2616C50.9643 79.2637 50.8961 79.2523 50.8322 79.228C50.7682 79.2036 50.7097 79.1669 50.6598 79.12C50.6101 79.0729 50.5701 79.0165 50.5423 78.954C50.5144 78.8915 50.4991 78.8241 50.4974 78.7557C50.4969 78.6713 50.5144 78.5877 50.5488 78.5107L52.0029 74.5821ZM52.0825 77.2072H53.4569L52.7832 75.1125H52.7697L52.0825 77.2072Z" stroke-width="1"></path><path fill="#f9faf8" d="M55.3716 74.5894C55.3682 74.516 55.3796 74.4428 55.4053 74.3739C55.4309 74.3051 55.4702 74.2423 55.5209 74.1891C55.5717 74.1359 55.6325 74.0937 55.7 74.0648C55.7677 74.0358 55.8403 74.0209 55.9137 74.0209C55.9872 74.0209 56.0598 74.0359 56.1273 74.0648C56.1948 74.0937 56.2558 74.1359 56.3064 74.1891C56.3571 74.2423 56.3964 74.3051 56.4222 74.3739C56.4478 74.4428 56.4593 74.516 56.4557 74.5894V78.6981C56.4593 78.7715 56.4478 78.8447 56.4222 78.9136C56.3964 78.9823 56.3571 79.0452 56.3064 79.0984C56.2558 79.1514 56.1948 79.1938 56.1273 79.2227C56.0598 79.2517 55.9872 79.2665 55.9137 79.2665C55.8403 79.2665 55.7677 79.2517 55.7 79.2227C55.6325 79.1938 55.5717 79.1515 55.5209 79.0984C55.4702 79.0452 55.4309 78.9823 55.4053 78.9136C55.3796 78.8447 55.3682 78.7715 55.3716 78.6981V74.5894Z" stroke-width="1"></path><path fill="#f9faf8" d="M57.105 74.6323C57.097 74.5568 57.1059 74.4807 57.131 74.4091C57.1561 74.3375 57.1968 74.2724 57.2502 74.2185C57.3035 74.1646 57.3681 74.1232 57.4394 74.0973C57.5107 74.0714 57.5868 74.0617 57.6624 74.0688H58.9425C60.056 74.0688 60.7432 74.5674 60.7432 75.703C60.7345 76.0587 60.5913 76.3978 60.3424 76.652C60.0934 76.9062 59.7573 77.0565 59.4019 77.0725L60.6269 78.3894C60.7146 78.4727 60.7664 78.587 60.7714 78.7079C60.7727 78.82 60.7395 78.9298 60.6764 79.0226C60.6133 79.1153 60.5232 79.1864 60.4185 79.2264C60.3138 79.2665 60.1992 79.2735 60.0905 79.2465C59.9816 79.2194 59.8837 79.1598 59.8098 79.0754L58.2075 77.1276H58.194V78.6981C58.194 78.842 58.1368 78.9801 58.035 79.0817C57.9332 79.1835 57.7953 79.2407 57.6514 79.2407C57.5074 79.2407 57.3694 79.1835 57.2676 79.0817C57.1658 78.9801 57.1087 78.842 57.1087 78.6981L57.105 74.6323ZM58.1904 76.3473H58.9425C59.0305 76.3561 59.1193 76.3457 59.2029 76.3169C59.2865 76.2881 59.3628 76.2416 59.4267 76.1805C59.4907 76.1195 59.5405 76.0452 59.573 75.963C59.6056 75.8807 59.6198 75.7925 59.615 75.7042C59.6189 75.6164 59.604 75.5288 59.571 75.4473S59.4881 75.2925 59.4243 75.232C59.3605 75.1716 59.2845 75.1256 59.2013 75.0971C59.1182 75.0687 59.03 75.0585 58.9425 75.0672H58.1977L58.1904 76.3473Z" stroke-width="1"></path><path fill="#f9faf8" d="M37.7843 32.8892C39.5214 23.0084 34.4572 15.9842 25.6164 16.1704C16.571 15.983 12.444 23.2472 14.1394 32.8892C14.7837 36.5544 14.7519 39.6549 13.5661 41.806C13.5215 41.8915 13.4958 41.9854 13.4904 42.0816C13.485 42.1778 13.5002 42.2741 13.5349 42.3638C13.5697 42.4538 13.6233 42.5351 13.692 42.6026C13.7607 42.6702 13.8431 42.7223 13.9336 42.7554C17.6958 44.022 21.6518 44.6163 25.6201 44.5108C29.8002 44.5772 33.9644 43.9772 37.9558 42.7333C38.0495 42.7029 38.1354 42.6525 38.2076 42.5853C38.2797 42.5182 38.3362 42.4361 38.3732 42.3449C38.4102 42.2536 38.4268 42.1552 38.4218 42.0569C38.4168 41.9585 38.3902 41.8624 38.3441 41.7754C37.1755 39.6255 37.1436 36.536 37.7843 32.8892Z" stroke-width="1"></path><path stroke="#0f3f6c" stroke-linecap="round" stroke-linejoin="round" d="M37.7843 32.8892C39.5214 23.0084 34.4572 15.9842 25.6164 16.1704C16.571 15.983 12.444 23.2472 14.1394 32.8892C14.7837 36.5544 14.7519 39.6549 13.5661 41.806C13.5215 41.8915 13.4958 41.9854 13.4904 42.0816C13.485 42.1778 13.5002 42.2741 13.5349 42.3638C13.5697 42.4538 13.6233 42.5351 13.692 42.6026C13.7607 42.6702 13.8431 42.7223 13.9336 42.7554C17.6958 44.022 21.6518 44.6163 25.6201 44.5108C29.8002 44.5772 33.9644 43.9772 37.9558 42.7333C38.0495 42.7029 38.1354 42.6525 38.2076 42.5853C38.2797 42.5182 38.3362 42.4361 38.3732 42.3449C38.4102 42.2536 38.4268 42.1552 38.4218 42.0569C38.4168 41.9585 38.3902 41.8624 38.3441 41.7754C37.1755 39.6255 37.1436 36.536 37.7843 32.8892Z" stroke-width="1"></path><path fill="#0f3f6c" d="M40.2466 62.6432V52.7881C40.2466 48.9869 38.7365 45.3413 36.0486 42.6535C33.3608 39.9657 29.7152 38.4556 25.9141 38.4556C22.1129 38.4556 18.4673 39.9657 15.7794 42.6535C13.0916 45.3413 11.5816 48.9869 11.5816 52.7881V54.5803C11.5839 56.718 12.434 58.7676 13.9457 60.2791C15.4572 61.7907 17.5068 62.641 19.6445 62.6432H40.2466Z" stroke-width="1"></path><path stroke="#0f3f6c" stroke-linecap="round" stroke-linejoin="round" d="M40.2466 62.6432V52.7881C40.2466 48.9869 38.7365 45.3413 36.0486 42.6535C33.3608 39.9657 29.7152 38.4556 25.9141 38.4556C22.1129 38.4556 18.4673 39.9657 15.7794 42.6535C13.0916 45.3413 11.5816 48.9869 11.5816 52.7881V54.5803C11.5839 56.718 12.434 58.7676 13.9457 60.2791C15.4572 61.7907 17.5068 62.641 19.6445 62.6432H40.2466Z" stroke-width="1"></path><path stroke="#0f3f6c" stroke-linecap="round" stroke-linejoin="round" d="M26.8144 47.414V62.6432" stroke-width="1"></path><path stroke="#0f3f6c" stroke-linecap="round" stroke-linejoin="round" d="M21.4391 57.2679H19.647C18.9347 57.266 18.2523 56.9823 17.7487 56.4787C17.2451 55.9749 16.9613 55.2925 16.9593 54.5803V52.2528" stroke-width="1"></path><path fill="#f9faf8" stroke="#0f3f6c" stroke-linecap="round" stroke-linejoin="round" d="M24.1268 62.6432C24.8396 62.6432 25.5232 62.3601 26.0272 61.856C26.5312 61.3521 26.8144 60.6684 26.8144 59.9556C26.8144 59.2428 26.5312 58.5592 26.0272 58.0551C25.5231 57.5512 24.8396 57.2679 24.1268 57.2679H21.4391V62.6432H24.1268Z" stroke-width="1"></path><path stroke="#0f3f6c" stroke-linecap="round" stroke-linejoin="round" d="M35.1407 62.6432V54.4247S36.6634 53.4447 36.6634 52.2577" stroke-width="1"></path><path fill="#f9faf8" stroke="#0f3f6c" stroke-linecap="round" stroke-linejoin="round" d="M30.1133 39.0804C29.8625 39.0035 29.643 38.8481 29.487 38.637C29.3311 38.426 29.247 38.1704 29.2473 37.908V33.6891H23.5486V37.6471C23.5486 37.9228 23.4556 38.1905 23.2847 38.4067C23.1137 38.623 22.8748 38.7753 22.6066 38.839C21.3768 39.1298 20.1912 39.583 19.081 40.1865C21.4085 43.1106 26.8181 45.0191 26.8181 45.0191C29.302 44.0157 31.5459 42.4987 33.4025 40.5675C32.3734 39.9348 31.2682 39.4351 30.1134 39.0803H30.1134Z" stroke-width="1"></path><path stroke="#0f3f6c" stroke-linecap="round" stroke-linejoin="round" d="M26.8144 45.0179V62.6432" stroke-width="1"></path><path fill="#f9faf8" stroke="#0f3f6c" stroke-linecap="round" stroke-linejoin="round" d="M35.8317 28.9178V28.957C35.864 31.1229 35.0707 33.2198 33.6131 34.822C32.1553 36.4242 30.1424 37.4115 27.9831 37.5834C26.3304 37.6748 24.6884 37.2675 23.2701 36.4143C21.8518 35.5611 20.7227 34.3014 20.0291 32.7986C19.9591 32.6429 19.9255 32.4731 19.9311 32.3024C20.0414 28.2979 21.1647 24.0851 24.7662 21.6878C25.7461 23.5174 27.1934 25.0544 28.9609 26.1424C30.7282 27.2303 32.7524 27.8305 34.8271 27.8814C35.0953 27.8929 35.3489 28.0069 35.5357 28.1995C35.7225 28.3924 35.8285 28.6494 35.8316 28.9178H35.8316Z" stroke-width="1"></path><path fill="#0f3f6c" d="M26.4947 28.6041C27.0678 28.6041 27.5323 28.1396 27.5323 27.5666S27.0678 26.529 26.4947 26.529S25.4571 26.9935 25.4571 27.5666S25.9217 28.6041 26.4947 28.6041Z" stroke-width="1"></path><path fill="#0f3f6c" d="M31.0885 27.1268C31.0239 27.264 30.9901 27.4136 30.9896 27.5652C30.9891 27.7168 31.0218 27.8667 31.0855 28.0043C31.1491 28.1418 31.2421 28.2639 31.358 28.3616C31.4738 28.4593 31.6097 28.5305 31.756 28.5702C31.9023 28.6098 32.0556 28.6169 32.2049 28.5909C32.3542 28.5649 32.4961 28.5066 32.6204 28.4199C32.7448 28.3333 32.8487 28.2204 32.9247 28.0893C33.0008 27.9581 33.0472 27.8119 33.0607 27.6609C32.39 27.5357 31.7306 27.3571 31.0884 27.1268Z" stroke-width="1"></path><path fill="#0f3f6c" d="M23.7287 31.3702C24.3017 31.3702 24.7662 30.9057 24.7662 30.3326S24.3017 29.2951 23.7287 29.2951S22.6911 29.7596 22.6911 30.3326S23.1556 31.3702 23.7287 31.3702Z" stroke-width="1"></path><path stroke="#0f3f6c" stroke-linecap="round" stroke-linejoin="round" d="M26.8402 32.8169C27.4546 33.2267 28.1766 33.4455 28.9153 33.4455C29.6539 33.4455 30.376 33.2267 30.9905 32.8169" stroke-width="1"></path><path fill="#f9faf8" stroke="#0f3f6c" stroke-linecap="round" stroke-linejoin="round" d="M27.4808 12.2492H26.5854C23.973 12.2535 21.469 13.2929 19.6217 15.1399C17.7745 16.987 16.7348 19.4909 16.7302 22.1031V26.3134C16.7239 26.5526 16.7656 26.7906 16.8528 27.0135S17.071 27.4394 17.238 27.6108C17.405 27.7823 17.6046 27.9185 17.8251 28.0115C18.0455 28.1045 18.2824 28.1525 18.5218 28.1525C18.761 28.1525 18.998 28.1045 19.2183 28.0115C19.4388 27.9185 19.6385 27.7823 19.8055 27.6108C19.9724 27.4394 20.1034 27.2363 20.1906 27.0135C20.2778 26.7906 20.3196 26.5526 20.3133 26.3134V22.1031C20.317 20.8445 20.6959 19.6156 21.4015 18.5733C22.1072 17.5312 23.1077 16.7232 24.275 16.2525C30.7834 15.6094 35.4801 18.6731 37.2967 23.9087V21.1794C37.0591 18.7387 35.9232 16.4733 34.1093 14.8231C32.2953 13.1729 29.933 12.2555 27.4808 12.2492H27.4808Z" stroke-width="1"></path><path fill="#0f3f6c" stroke="#0f3f6c" stroke-linecap="round" stroke-linejoin="round" d="M19.6016 25.6862H17.3342C15.981 25.6862 14.8842 26.7831 14.8842 28.1362V31.2992C14.8842 32.6523 15.981 33.7492 17.3342 33.7492H19.6016C20.9548 33.7492 22.0516 32.6523 22.0516 31.2992V28.1362C22.0516 26.7831 20.9548 25.6862 19.6016 25.6862Z" stroke-width="1"></path><path fill="#0f3f6c" d="M61.8703 62.6432H85.846C87.0329 60.4163 87.7178 57.9565 87.8525 55.4366V53.6836C87.8524 51.6835 87.4582 49.7031 86.6927 47.8553C85.9272 46.0075 84.8051 44.3286 83.3907 42.9144C81.9763 41.5002 80.2972 40.3785 78.4494 39.6132C76.6015 38.848 74.6209 38.4543 72.6208 38.4544C60.2153 38.4544 60.3708 49.205 55.0127 49.205C54.1225 49.2031 53.2543 48.9283 52.5252 48.4174C51.7962 47.9066 51.2414 47.1844 50.9359 46.3483L49.2148 41.6186L43.2221 43.4634C43.2331 43.4953 43.2356 43.5271 43.2466 43.5577L45.0424 48.492C45.7902 50.5362 47.1471 52.3018 48.93 53.5504C50.713 54.7991 52.836 55.4706 55.0127 55.4745C57.3243 55.4745 57.3647 55.1977 61.8727 52.7869L61.8703 62.6432Z" stroke-width="1"></path><path stroke="#0f3f6c" stroke-linecap="round" stroke-linejoin="round" d="M61.8703 62.6432H85.846C87.0329 60.4163 87.7178 57.9565 87.8525 55.4366V53.6836C87.8524 51.6835 87.4582 49.7031 86.6927 47.8553C85.9272 46.0075 84.8051 44.3286 83.3907 42.9144C81.9763 41.5002 80.2972 40.3785 78.4494 39.6132C76.6015 38.848 74.6209 38.4543 72.6208 38.4544C60.2153 38.4544 60.3708 49.205 55.0127 49.205C54.1225 49.2031 53.2543 48.9283 52.5252 48.4174C51.7962 47.9066 51.2414 47.1844 50.9359 46.3483L49.2148 41.6186L43.2221 43.4634C43.2331 43.4953 43.2356 43.5271 43.2466 43.5577L45.0424 48.492C45.7902 50.5362 47.1471 52.3018 48.93 53.5504C50.713 54.7991 52.836 55.4706 55.0127 55.4745C57.3243 55.4745 57.3647 55.1977 61.8727 52.7869L61.8703 62.6432Z" stroke-width="1"></path><path stroke="#0f3f6c" stroke-linecap="round" stroke-linejoin="round" d="M77.0321 62.6432C78.0407 62.2578 78.9286 61.611 79.6046 60.769C80.7757 59.1772 81.4616 57.2807 81.5793 55.3079V52.7881" stroke-width="1"></path><path fill="#f9faf8" stroke="#0f3f6c" stroke-linecap="round" stroke-linejoin="round" d="M72.6209 38.4544C70.2015 38.3865 67.8029 38.9176 65.6384 40.0003L71.7278 61.7465S78.1456 39.6794 78.2056 39.5116C76.4272 38.811 74.5323 38.4523 72.6209 38.4544H72.6209Z" stroke-width="1"></path><path fill="#0f3f6c" stroke="#0f3f6c" stroke-linecap="round" stroke-linejoin="round" d="M71.7131 41.5928L74.3885 52.5431L71.7254 61.7465L69.0965 52.3557L71.7131 41.5928Z" stroke-width="1"></path><path stroke="#0f3f6c" stroke-linecap="round" stroke-linejoin="round" d="M67.0398 45.0142L71.7131 41.5928L76.5421 45.1968" stroke-width="1"></path><path fill="#0f3f6c" stroke="#0f3f6c" stroke-linecap="round" stroke-linejoin="round" d="M78.2044 39.5091C78.1909 39.5152 71.7254 61.7465 71.7254 61.7465L78.8929 51.8926V47.414L83.4082 42.933C81.9274 41.4462 80.156 40.2806 78.2044 39.5091H78.2044Z" stroke-width="1"></path><path fill="#0f3f6c" stroke="#0f3f6c" stroke-linecap="round" stroke-linejoin="round" d="M61.0716 43.9546L64.5579 47.414V51.8926L71.7254 61.7465L65.6359 40.0003C63.8529 40.9822 62.2974 42.3297 61.0716 43.9546H61.0716Z" stroke-width="1"></path><path fill="#f9faf8" stroke="#0f3f6c" stroke-linecap="round" stroke-linejoin="round" d="M48.2911 38.6222C48.1739 38.2242 47.9789 37.8534 47.7173 37.5313C47.4557 37.2092 47.1328 36.9422 46.7672 36.746C46.4017 36.5496 46.0009 36.4277 45.5879 36.3876C45.1748 36.3474 44.758 36.3895 44.3614 36.5117C43.9649 36.6338 43.5965 36.8333 43.2777 37.0989C42.9589 37.3645 42.6959 37.6906 42.5042 38.0586C42.3124 38.4266 42.1955 38.8289 42.1605 39.2423C42.1253 39.6557 42.1726 40.0721 42.2996 40.467L43.2221 43.4634L49.2148 41.6185L48.2911 38.6222Z" stroke-width="1"></path><path fill="#f9faf8" stroke="#0f3f6c" stroke-linecap="round" stroke-linejoin="round" d="M68.3579 38.9579L71.7131 41.5928L74.3518 38.5512L74.3457 32.2461H68.3517L68.3579 38.9579Z" stroke-width="1"></path><path fill="#f9faf8" d="M71.0982 15.8115C73.4743 15.8119 75.7531 16.7558 77.4333 18.436S80.0574 22.395 80.0578 24.7711V26.5621C82.6156 26.5621 82.4405 31.0419 79.6095 31.0419H79.6021C78.9652 33.0834 77.6171 34.8286 75.8028 35.9607C73.9884 37.0927 71.8283 37.5364 69.7146 37.211C67.6009 36.8858 65.6741 35.813 64.2842 34.1878C62.8942 32.5626 62.1334 30.4927 62.1397 28.3543V24.7711C62.1397 22.3951 63.0835 20.1164 64.7636 18.4362C66.4435 16.756 68.7222 15.8119 71.0982 15.8115Z" stroke-width="1"></path><path stroke="#0f3f6c" stroke-linecap="round" stroke-linejoin="round" d="M71.0982 15.8115C73.4743 15.8119 75.7531 16.7558 77.4333 18.436S80.0574 22.395 80.0578 24.7711V26.5621C82.6156 26.5621 82.4405 31.0419 79.6095 31.0419H79.6021C78.9652 33.0834 77.6171 34.8286 75.8028 35.9607C73.9884 37.0927 71.8283 37.5364 69.7146 37.211C67.6009 36.8858 65.6741 35.813 64.2842 34.1878C62.8942 32.5626 62.1334 30.4927 62.1397 28.3543V24.7711C62.1397 22.3951 63.0835 20.1164 64.7636 18.4362C66.4435 16.756 68.7222 15.8119 71.0982 15.8115H71.0982Z" stroke-width="1"></path><path fill="#f9faf8" stroke="#0f3f6c" stroke-linecap="round" stroke-linejoin="round" d="M80.968 27.46V22.5306C80.9543 21.9457 80.7123 21.3892 80.2938 20.9802C79.8752 20.5713 79.3133 20.3425 78.7281 20.3425S77.581 20.5713 77.1624 20.9802S76.5019 21.9457 76.4882 22.5306V22.9789C76.4881 23.5673 76.6037 24.1501 76.8289 24.6937C77.0539 25.2374 77.3838 25.7313 77.7998 26.1474C78.2158 26.5635 78.7097 26.8937 79.2534 27.1188C79.7969 27.3441 80.3796 27.46 80.968 27.46H80.968Z" stroke-width="1"></path><path fill="#0f3f6c" d="M71.5453 26.7875C71.5453 27.0092 71.6111 27.2259 71.7342 27.4103C71.8574 27.5945 72.0325 27.7382 72.2373 27.8231C72.4421 27.9079 72.6674 27.93 72.8848 27.8868C73.1023 27.8436 73.3021 27.7368 73.4587 27.5801C73.6155 27.4234 73.7222 27.2236 73.7655 27.0061C73.8087 26.7887 73.7866 26.5634 73.7018 26.3586C73.6169 26.1538 73.4732 25.9787 73.289 25.8555C73.1046 25.7324 72.8879 25.6666 72.6662 25.6666C72.5191 25.6666 72.3733 25.6956 72.2373 25.752C72.1012 25.8083 71.9777 25.8908 71.8736 25.9949C71.7695 26.099 71.687 26.2225 71.6307 26.3586C71.5743 26.4946 71.5453 26.6404 71.5453 26.7875Z" stroke-width="1"></path><path fill="#0f3f6c" d="M64.8225 26.7875C64.8228 27.0088 64.8887 27.2253 65.0118 27.4092C65.135 27.5932 65.3099 27.7365 65.5145 27.821C65.7191 27.9057 65.9442 27.9276 66.1613 27.8842C66.3784 27.841 66.5778 27.7341 66.7342 27.5776C66.8908 27.4209 66.9972 27.2214 67.0404 27.0043C67.0835 26.7871 67.0612 26.5621 66.9764 26.3575C66.8917 26.153 66.7481 25.9782 66.5641 25.8552C66.38 25.7322 66.1635 25.6666 65.9422 25.6666C65.795 25.6666 65.6493 25.6956 65.5134 25.752C65.3774 25.8083 65.254 25.8909 65.15 25.995C65.046 26.0991 64.9635 26.2226 64.9074 26.3586C64.8512 26.4946 64.8223 26.6403 64.8225 26.7875Z" stroke-width="1"></path><path fill="#0f3f6c" d="M73.7858 30.3706C73.7861 30.5477 73.8387 30.7207 73.9374 30.8678C74.0358 31.0148 74.1759 31.1295 74.3394 31.1971C74.503 31.2646 74.6831 31.2823 74.8567 31.2476C75.0303 31.2128 75.1898 31.1274 75.3149 31.0022C75.4401 30.8769 75.5252 30.7173 75.5596 30.5437C75.594 30.37 75.5763 30.19 75.5084 30.0264C75.4407 29.8628 75.3259 29.7231 75.1786 29.6247C75.0314 29.5265 74.8583 29.4739 74.6813 29.4739C74.4436 29.4743 74.2159 29.5688 74.048 29.737C73.8802 29.9051 73.7858 30.1331 73.7858 30.3706Z" stroke-width="1"></path><path stroke="#0f3f6c" stroke-linecap="round" stroke-linejoin="round" d="M71.5453 31.8528C71.0112 32.3263 70.3402 32.6173 69.6295 32.6833C68.9189 32.7493 68.2057 32.5872 67.5935 32.2203C67.4081 32.1124 67.232 31.9896 67.0667 31.8528" stroke-width="1"></path><path stroke="#0f3f6c" stroke-linecap="round" stroke-linejoin="round" d="M69.3219 26.5621C69.3222 27.2711 69.1122 27.9642 68.7185 28.5538C68.3248 29.1434 67.7651 29.603 67.1101 29.8745C66.4552 30.1459 65.7345 30.2171 65.0391 30.0789C64.3437 29.9408 63.7049 29.5995 63.2036 29.0983C62.7022 28.5971 62.3606 27.9583 62.2222 27.263C62.0838 26.5677 62.1547 25.8469 62.426 25.1919C62.6973 24.5369 63.1566 23.9771 63.7461 23.5831C64.3356 23.1893 65.0287 22.979 65.7376 22.979C66.6881 22.979 67.5996 23.3565 68.2717 24.0284C68.9439 24.7003 69.3217 25.6117 69.3219 26.5621H69.3219Z" stroke-width="1"></path><path stroke="#0f3f6c" stroke-linecap="round" stroke-linejoin="round" d="M76.4882 26.5621C76.4882 27.2709 76.278 27.9637 75.8841 28.5531C75.4903 29.1423 74.9306 29.6016 74.2757 29.8728C73.6208 30.1439 72.9003 30.2147 72.2051 30.0762C71.51 29.9377 70.8716 29.5963 70.3705 29.0949C69.8695 28.5935 69.5285 27.9549 69.3905 27.2596C69.2525 26.5644 69.3238 25.8439 69.5954 25.1892C69.8669 24.5345 70.3266 23.9751 70.9162 23.5817C71.5057 23.1882 72.1987 22.9785 72.9075 22.979C73.8574 22.9796 74.7682 23.3575 75.4396 24.0293C76.111 24.7012 76.4882 25.6122 76.4882 26.5621H76.4882Z" stroke-width="1"></path></svg>