<svg viewBox="0 0 100 100" xmlns="http://www.w3.org/2000/svg" id="Bookworm-4-1--Streamline-Ux.svg" height="100" width="100"><desc>Bookworm 4 1 Streamline Illustration: https://streamlinehq.com</desc><path d="M76.334 57.9h3.788a1.051 1.051 0 0 1 1.051 1.051v1.578a1.05 1.05 0 0 1 -1.051 1.051h-3.788" fill="none" stroke="#0f3f6c" stroke-linecap="round" stroke-linejoin="round" stroke-width="1"></path><path d="M71.26 51.589h6.759a1.052 1.052 0 0 1 1.051 1.052v1.577a1.052 1.052 0 0 1 -1.051 1.052h-2.783" fill="none" stroke="#0f3f6c" stroke-linecap="round" stroke-linejoin="round" stroke-width="1"></path><path d="M61.308 43.7h16.711a1.052 1.052 0 0 1 1.051 1.052v3.154a1.052 1.052 0 0 1 -1.051 1.052H62.338" fill="none" stroke="#0f3f6c" stroke-linecap="round" stroke-linejoin="round" stroke-width="1"></path><path d="M58.415 35.815h19.6a1.052 1.052 0 0 1 1.051 1.051v3.155a1.052 1.052 0 0 1 -1.051 1.052H61.2" fill="none" stroke="#0f3f6c" stroke-linecap="round" stroke-linejoin="round" stroke-width="1"></path><path d="M74.864 55.27h3.155a1.051 1.051 0 0 1 1.051 1.051v0.526a1.052 1.052 0 0 1 -1.051 1.053h-1.685" fill="none" stroke="#0f3f6c" stroke-linecap="round" stroke-linejoin="round" stroke-width="1"></path><path d="M62.338 48.96h14.629a1.052 1.052 0 0 1 1.052 1.052v0.525a1.052 1.052 0 0 1 -1.052 1.052H71.26" fill="none" stroke="#0f3f6c" stroke-linecap="round" stroke-linejoin="round" stroke-width="1"></path><path d="M61.2 41.073h14.715a1.052 1.052 0 0 1 1.052 1.051v0.526a1.052 1.052 0 0 1 -1.052 1.05H61.308" fill="none" stroke="#0f3f6c" stroke-linecap="round" stroke-linejoin="round" stroke-width="1"></path><path d="M54.282 33.374a1.048 1.048 0 0 1 0.6 -0.188h19.456a1.051 1.051 0 0 1 1.051 1.051v0.526a1.051 1.051 0 0 1 -1.051 1.052H57.293" fill="none" stroke="#0f3f6c" stroke-linecap="round" stroke-linejoin="round" stroke-width="1"></path><path d="m61.307 43.702 0 3.575" fill="none" stroke="#0f3f6c" stroke-linecap="round" stroke-linejoin="round" stroke-width="1"></path><path d="M64.873 35.815h2.103v5.258h-2.103z" fill="none" stroke="#0f3f6c" stroke-linecap="round" stroke-linejoin="round" stroke-width="1"></path><path d="m74.864 51.589 0 3.631" fill="none" stroke="#0f3f6c" stroke-linecap="round" stroke-linejoin="round" stroke-width="1"></path><path d="M75.2 74.725h14.649a1.051 1.051 0 0 1 1.051 1.051v0.524a1.052 1.052 0 0 1 -1.052 1.052H74.629" fill="none" stroke="#0f3f6c" stroke-linecap="round" stroke-linejoin="round" stroke-width="1"></path><path d="M75.2 66.837h14.649a1.052 1.052 0 0 1 1.051 1.052v0.526a1.052 1.052 0 0 1 -1.052 1.052H75.211" fill="none" stroke="#0f3f6c" stroke-linecap="round" stroke-linejoin="round" stroke-width="1"></path><path d="M75.211 69.467H88.8a1.051 1.051 0 0 1 1.051 1.051v3.155a1.052 1.052 0 0 1 -1.051 1.052H75.2" fill="none" stroke="#0f3f6c" stroke-linecap="round" stroke-linejoin="round" stroke-width="1"></path><path d="m86.694 69.467 0 5.258" fill="none" stroke="#0f3f6c" stroke-linecap="round" stroke-linejoin="round" stroke-width="1"></path><path d="M76.334 61.579h14.041a1.052 1.052 0 0 1 1.052 1.052v3.155a1.051 1.051 0 0 1 -1.052 1.051H75.2" fill="none" stroke="#0f3f6c" stroke-linecap="round" stroke-linejoin="round" stroke-width="1"></path><path d="M77.23 61.579h2.103v5.258H77.23z" fill="none" stroke="#0f3f6c" stroke-linecap="round" stroke-linejoin="round" stroke-width="1"></path><path d="M74.628 77.354h15.221a1.051 1.051 0 0 1 1.051 1.051v1.578a1.051 1.051 0 0 1 -1.052 1.051H69.6" fill="none" stroke="#0f3f6c" stroke-linecap="round" stroke-linejoin="round" stroke-width="1"></path><path d="M84.591 77.354h2.103v3.681h-2.103z" fill="none" stroke="#0f3f6c" stroke-linecap="round" stroke-linejoin="round" stroke-width="1"></path><path d="M29.021 79.954H10.872A1.052 1.052 0 0 1 9.82 78.9v-1.575a1.052 1.052 0 0 1 1.052 -1.052h12.8" fill="none" stroke="#0f3f6c" stroke-linecap="round" stroke-linejoin="round" stroke-width="1"></path><path d="M23.672 73.644h-10.7a1.052 1.052 0 0 1 -1.052 -1.052v-1.577a1.052 1.052 0 0 1 1.052 -1.052h10.7" fill="none" stroke="#0f3f6c" stroke-linecap="round" stroke-linejoin="round" stroke-width="1"></path><path d="M23.672 67.334h-9.645a1.051 1.051 0 0 1 -1.052 -1.051v-3.155a1.052 1.052 0 0 1 1.052 -1.052h8.552" fill="none" stroke="#0f3f6c" stroke-linecap="round" stroke-linejoin="round" stroke-width="1"></path><path d="M23.672 76.273h-10.7a1.052 1.052 0 0 1 -1.052 -1.052V74.7a1.052 1.052 0 0 1 1.052 -1.052h10.7" fill="none" stroke="#0f3f6c" stroke-linecap="round" stroke-linejoin="round" stroke-width="1"></path><path d="M23.672 69.963h-10.7a1.051 1.051 0 0 1 -1.052 -1.051v-0.526a1.052 1.052 0 0 1 1.052 -1.052h10.7" fill="none" stroke="#0f3f6c" stroke-linecap="round" stroke-linejoin="round" stroke-width="1"></path><path d="M22.579 62.076h-9.6a1.052 1.052 0 0 1 -1.052 -1.051V60.5a1.052 1.052 0 0 1 1.052 -1.052h9.031" fill="none" stroke="#0f3f6c" stroke-linecap="round" stroke-linejoin="round" stroke-width="1"></path><path d="m14.027 76.273 0 3.681" fill="none" stroke="#0f3f6c" stroke-linecap="round" stroke-linejoin="round" stroke-width="1"></path><path d="m16.656 62.076 0 5.258" fill="none" stroke="#0f3f6c" stroke-linecap="round" stroke-linejoin="round" stroke-width="1"></path><path d="M59.118 51.247a1.807 1.807 0 0 0 0.646 -1.388 1.834 1.834 0 0 0 -1.489 -1.786V46.88a8.928 8.928 0 0 0 -0.243 -2.075" fill="none" stroke="#0f3f6c" stroke-linecap="round" stroke-linejoin="round" stroke-width="1"></path><path d="M40.405 47.391v0.682a1.817 1.817 0 0 0 -0.455 3.427" fill="none" stroke="#0f3f6c" stroke-linecap="round" stroke-linejoin="round" stroke-width="1"></path><path d="M45.989 47.064a0.933 0.933 0 1 0 0.934 0.933 0.933 0.933 0 0 0 -0.934 -0.933Z" fill="#0f3f6c" stroke-width="1"></path><path d="M52.691 47.064a0.933 0.933 0 1 0 0.933 0.933 0.934 0.934 0 0 0 -0.933 -0.933Z" fill="#0f3f6c" stroke-width="1"></path><path d="M47.106 53.65a4.027 4.027 0 0 0 4.468 0" fill="none" stroke="#0f3f6c" stroke-linecap="round" stroke-linejoin="round" stroke-width="1"></path><path d="M55.794 45.1c1.111 -0.114 2.2 -0.276 3.225 -0.448a9.679 9.679 0 1 0 -19.358 0v2.978a8.141 8.141 0 0 0 2.385 -1.053" fill="none" stroke="#0f3f6c" stroke-linecap="round" stroke-linejoin="round" stroke-width="1"></path><path d="M43.383 41.668c0.124 0.106 0.474 1.14 2.9 2.294" fill="none" stroke="#0f3f6c" stroke-linecap="round" stroke-linejoin="round" stroke-width="1"></path><path d="M41.894 47.625a3.723 3.723 0 1 0 7.446 0 3.723 3.723 0 1 0 -7.446 0Z" fill="none" stroke="#0f3f6c" stroke-linecap="round" stroke-linejoin="round" stroke-width="1"></path><path d="M49.34 47.625a3.723 3.723 0 1 0 7.446 0 3.723 3.723 0 1 0 -7.446 0Z" fill="none" stroke="#0f3f6c" stroke-linecap="round" stroke-linejoin="round" stroke-width="1"></path><path d="m51.574 76.479 0 -17.685 -4.468 0 0 17.729" fill="none" stroke="#0f3f6c" stroke-linecap="round" stroke-linejoin="round" stroke-width="1"></path><path d="M26.258 65.308v10.853a1.489 1.489 0 0 0 1.228 1.466l2.178 0.389" fill="none" stroke="#0f3f6c" stroke-linecap="round" stroke-linejoin="round" stroke-width="1"></path><path d="m47.106 58.794 -20.639 -3.686" fill="none" stroke="#0f3f6c" stroke-linecap="round" stroke-linejoin="round" stroke-width="1"></path><path d="M41.15 66.662a1.49 1.49 0 0 1 -1.777 1.461l-5.659 -1.115a1.49 1.49 0 0 1 -1.2 -1.461v-2.708a1.489 1.489 0 0 1 1.777 -1.462l5.658 1.116a1.488 1.488 0 0 1 1.2 1.461Z" fill="none" stroke="#0f3f6c" stroke-linecap="round" stroke-linejoin="round" stroke-width="1"></path><path d="M27.612 57.254a2.606 2.606 0 1 1 -0.379 5.2l-1.114 -0.082a1.489 1.489 0 0 1 -1.377 -1.594l0.163 -2.227a1.489 1.489 0 0 1 1.595 -1.378Z" fill="none" stroke="#0f3f6c" stroke-linecap="round" stroke-linejoin="round" stroke-width="1"></path><path d="m26.467 55.108 20.639 3.686h2.234a9.586 9.586 0 0 0 -6.505 -4.5L31.317 52.2a1.487 1.487 0 0 0 -1.091 0.226l-3.3 2.2a1.482 1.482 0 0 0 -0.459 0.482Z" fill="none" stroke="#0f3f6c" stroke-linecap="round" stroke-linejoin="round" stroke-width="1"></path><path d="M72.422 62.381v13.78a1.489 1.489 0 0 1 -1.228 1.466L69 78.019" fill="none" stroke="#0f3f6c" stroke-linecap="round" stroke-linejoin="round" stroke-width="1"></path><path d="m51.574 58.794 20.639 -3.686a1.494 1.494 0 0 1 0.209 0.76v1.307" fill="none" stroke="#0f3f6c" stroke-linecap="round" stroke-linejoin="round" stroke-width="1"></path><path d="M71.068 57.254a2.606 2.606 0 0 0 0.38 5.2l1.113 -0.082a1.489 1.489 0 0 0 1.377 -1.594l-0.163 -2.227a1.488 1.488 0 0 0 -1.593 -1.377Z" fill="none" stroke="#0f3f6c" stroke-linecap="round" stroke-linejoin="round" stroke-width="1"></path><path d="m72.213 55.108 -20.639 3.686H49.34a9.588 9.588 0 0 1 6.5 -4.5L67.363 52.2a1.487 1.487 0 0 1 1.091 0.226l3.305 2.2a1.482 1.482 0 0 1 0.454 0.482Z" fill="none" stroke="#0f3f6c" stroke-linecap="round" stroke-linejoin="round" stroke-width="1"></path><path d="M33.218 83.824a4.576 4.576 0 0 1 -1.168 -4.713h0a4.577 4.577 0 0 1 5.772 -2.928l11.183 3.656" fill="none" stroke="#0f3f6c" stroke-linecap="round" stroke-linejoin="round" stroke-width="1"></path><path d="M60.3 92.753a1.614 1.614 0 0 1 -1.121 0.042l-10.174 -3.326" fill="none" stroke="#0f3f6c" stroke-linecap="round" stroke-linejoin="round" stroke-width="1"></path><path d="M61.159 94.3a1.861 1.861 0 0 0 3.224 -0.587l2.383 -7.288a1.863 1.863 0 0 0 -2.07 -2.417c-4.367 0.716 -6.186 6.983 -3.537 10.292Z" fill="none" stroke="#0f3f6c" stroke-linecap="round" stroke-linejoin="round" stroke-width="1"></path><path d="M65.016 83.984a4.577 4.577 0 0 0 1.614 -5.092h0a4.577 4.577 0 0 0 -5.772 -2.928l-24.2 7.912a1.611 1.611 0 0 0 -0.828 0.617" fill="none" stroke="#0f3f6c" stroke-linecap="round" stroke-linejoin="round" stroke-width="1"></path><path d="M38.379 92.533a1.608 1.608 0 0 0 1.121 0.043l22.784 -7.449" fill="none" stroke="#0f3f6c" stroke-linecap="round" stroke-linejoin="round" stroke-width="1"></path><path d="M37.521 94.082A1.861 1.861 0 0 1 34.3 93.5l-2.383 -7.288a1.864 1.864 0 0 1 2.07 -2.418c4.364 0.706 6.183 6.978 3.534 10.288Z" fill="none" stroke="#0f3f6c" stroke-linecap="round" stroke-linejoin="round" stroke-width="1"></path><path d="M42.714 25.274a1.18 1.18 0 1 1 0 -2.359h2.867a1.18 1.18 0 1 1 0 2.359Z" fill="none" stroke="#0f3f6c" stroke-linecap="round" stroke-linejoin="round" stroke-width="1"></path><path d="M38.307 14.635a1.182 1.182 0 0 1 -0.834 -2.016l2.027 -2.026a1.181 1.181 0 1 1 1.67 1.669l-2.028 2.026a1.169 1.169 0 0 1 -0.835 0.347Z" fill="none" stroke="#0f3f6c" stroke-linecap="round" stroke-linejoin="round" stroke-width="1"></path><path d="M9.754 25.274a1.18 1.18 0 1 1 0 -2.359h2.866a1.18 1.18 0 1 1 0 2.359Z" fill="none" stroke="#0f3f6c" stroke-linecap="round" stroke-linejoin="round" stroke-width="1"></path><path d="M17.027 14.635a1.173 1.173 0 0 1 -0.834 -0.347l-2.027 -2.026a1.18 1.18 0 1 1 1.669 -1.669l2.026 2.026a1.182 1.182 0 0 1 -0.834 2.016Z" fill="none" stroke="#0f3f6c" stroke-linecap="round" stroke-linejoin="round" stroke-width="1"></path><path d="M27.668 10.227a1.182 1.182 0 0 1 -1.18 -1.18V6.181a1.18 1.18 0 1 1 2.36 0v2.866a1.182 1.182 0 0 1 -1.18 1.18Z" fill="none" stroke="#0f3f6c" stroke-linecap="round" stroke-linejoin="round" stroke-width="1"></path><path d="M33.192 40.389a1.517 1.517 0 0 1 -1.517 1.516h-7.583a1.517 1.517 0 0 1 0 -3.033h7.583a1.517 1.517 0 0 1 1.517 1.517Z" fill="none" stroke="#0f3f6c" stroke-linecap="round" stroke-linejoin="round" stroke-width="1"></path><path d="M33.192 43.422a1.516 1.516 0 0 1 -1.517 1.516h-7.583a1.517 1.517 0 0 1 0 -3.033h7.583a1.517 1.517 0 0 1 1.517 1.517Z" fill="none" stroke="#0f3f6c" stroke-linecap="round" stroke-linejoin="round" stroke-width="1"></path><path d="M31.675 44.938a3.792 3.792 0 1 1 -7.583 0Z" fill="none" stroke="#0f3f6c" stroke-linecap="round" stroke-linejoin="round" stroke-width="1"></path><path d="M36.875 25.224c0 -5.385 -3.607 -9.1 -8.991 -9.1a8.85 8.85 0 0 0 -9.208 9.207c0 4.732 5.308 9.749 5.308 13.54h7.583c0 -2.707 5.308 -8.563 5.308 -13.647Z" fill="none" stroke="#0f3f6c" stroke-linecap="round" stroke-linejoin="round" stroke-width="1"></path><path d="m27.017 38.872 -3.374 -10.123a1.726 1.726 0 0 1 2.857 -1.766 1.8 1.8 0 0 0 2.548 0 1.726 1.726 0 0 1 2.859 1.766l-3.373 10.123" fill="none" stroke="#0f3f6c" stroke-linecap="round" stroke-linejoin="round" stroke-width="1"></path></svg>