<svg xmlns="http://www.w3.org/2000/svg" fill="none" viewBox="0 0 100 100" id="Coding-Learning-2--Streamline-Ux.svg" height="100" width="100"><desc>Coding Learning 2 Streamline Illustration: https://streamlinehq.com</desc><path stroke="#0f3f6c" stroke-linecap="round" stroke-linejoin="round" d="M10.4961 21.145v10.992" stroke-width="1"></path><path stroke="#0f3f6c" stroke-linecap="round" stroke-linejoin="round" d="M10.4961 34.8848v16.489" stroke-width="1"></path><path stroke="#0f3f6c" stroke-linecap="round" stroke-linejoin="round" d="M44.8469 25.267c0.3644 0 0.7139 -0.1447 0.9716 -0.4024 0.2576 -0.2577 0.4024 -0.6071 0.4024 -0.9716 0 -0.3644 -0.1448 -0.7138 -0.4024 -0.9715 -0.2577 -0.2577 -0.6072 -0.4025 -0.9716 -0.4025h-30.229c-0.3644 0 -0.7139 0.1448 -0.9716 0.4025 -0.2576 0.2577 -0.4024 0.6071 -0.4024 0.9715 0 0.3645 0.1448 0.7139 0.4024 0.9716 0.2577 0.2577 0.6072 0.4024 0.9716 0.4024h30.229Z" stroke-width="1"></path><path stroke="#0f3f6c" stroke-linecap="round" stroke-linejoin="round" d="M33.8549 39.0078c0.3644 0 0.7139 -0.1448 0.9716 -0.4025 0.2576 -0.2576 0.4024 -0.6071 0.4024 -0.9715 0 -0.3644 -0.1448 -0.7139 -0.4024 -0.9716 -0.2577 -0.2577 -0.6072 -0.4024 -0.9716 -0.4024h-19.237c-0.3644 0 -0.7139 0.1447 -0.9716 0.4024 -0.2576 0.2577 -0.4024 0.6072 -0.4024 0.9716 0 0.3644 0.1448 0.7139 0.4024 0.9715 0.2577 0.2577 0.6072 0.4025 0.9716 0.4025h19.237Z" stroke-width="1"></path><path stroke="#0f3f6c" stroke-linecap="round" stroke-linejoin="round" d="M26.9849 50c0.3644 0 0.7139 -0.1448 0.9716 -0.4025 0.2576 -0.2577 0.4024 -0.6071 0.4024 -0.9715 0 -0.3645 -0.1448 -0.7139 -0.4024 -0.9716 -0.2577 -0.2577 -0.6072 -0.4024 -0.9716 -0.4024h-12.367c-0.3644 0 -0.7139 0.1447 -0.9716 0.4024 -0.2576 0.2577 -0.4024 0.6071 -0.4024 0.9716 0 0.3644 0.1448 0.7138 0.4024 0.9715 0.2577 0.2577 0.6072 0.4025 0.9716 0.4025h12.367Z" stroke-width="1"></path><path stroke="#0f3f6c" stroke-linecap="round" stroke-linejoin="round" d="M39.3509 44.5c0.3644 0 0.7139 -0.1448 0.9716 -0.4025 0.2576 -0.2577 0.4024 -0.6071 0.4024 -0.9715 0 -0.3645 -0.1448 -0.7139 -0.4024 -0.9716 -0.2577 -0.2577 -0.6072 -0.4024 -0.9716 -0.4024h-24.733c-0.1804 0 -0.3591 0.0355 -0.5258 0.1045 -0.1667 0.0691 -0.3182 0.1703 -0.4458 0.2979s-0.2288 0.279 -0.2978 0.4457c-0.0691 0.1667 -0.1046 0.3454 -0.1046 0.5259 0 0.1804 0.0355 0.3591 0.1046 0.5258 0.069 0.1667 0.1702 0.3181 0.2978 0.4457 0.1276 0.1276 0.2791 0.2288 0.4458 0.2979 0.1667 0.069 0.3454 0.1046 0.5258 0.1046h24.733Z" stroke-width="1"></path><path stroke="#0f3f6c" stroke-linecap="round" stroke-linejoin="round" d="M21.4889 30.7631c0.3644 0 0.7139 -0.1447 0.9716 -0.4024 0.2576 -0.2577 0.4024 -0.6072 0.4024 -0.9716 0 -0.3644 -0.1448 -0.7139 -0.4024 -0.9715 -0.2577 -0.2577 -0.6072 -0.4025 -0.9716 -0.4025h-6.871c-0.3644 0 -0.7139 0.1448 -0.9716 0.4025 -0.2576 0.2576 -0.4024 0.6071 -0.4024 0.9715 0 0.3644 0.1448 0.7139 0.4024 0.9716 0.2577 0.2577 0.6072 0.4024 0.9716 0.4024h6.871Z" stroke-width="1"></path><path stroke="#0f3f6c" stroke-linecap="round" stroke-linejoin="round" d="M39.3511 30.7631c0.3644 0 0.7139 -0.1447 0.9715 -0.4024 0.2577 -0.2577 0.4025 -0.6072 0.4025 -0.9716 0 -0.3644 -0.1448 -0.7139 -0.4025 -0.9715 -0.2576 -0.2577 -0.6071 -0.4025 -0.9715 -0.4025h-12.366c-0.3644 0 -0.7139 0.1448 -0.9716 0.4025 -0.2577 0.2576 -0.4024 0.6071 -0.4024 0.9715 0 0.3644 0.1447 0.7139 0.4024 0.9716 0.2577 0.2577 0.6072 0.4024 0.9716 0.4024h12.366Z" stroke-width="1"></path><path stroke="#0f3f6c" stroke-linecap="round" stroke-linejoin="round" d="M27.713 70.6108h-4.85c-0.0007 -0.5416 0.1053 -1.0779 0.3122 -1.5784 0.2069 -0.5004 0.5105 -0.9552 0.8934 -1.3381s0.8376 -0.6865 1.3381 -0.8934c0.5004 -0.2068 1.0368 -0.3129 1.5783 -0.3121h1.126" stroke-width="1"></path><path stroke="#0f3f6c" stroke-linecap="round" stroke-linejoin="round" d="M29.7329 63.9742v-2.982h9.618v0.687" stroke-width="1"></path><path stroke="#0f3f6c" stroke-linecap="round" stroke-linejoin="round" d="M64.0841 54.1221h-9.453" stroke-width="1"></path><path stroke="#0f3f6c" stroke-linecap="round" stroke-linejoin="round" d="M45.04 60.9921H9.122c-0.54153 0.0008 -1.07789 -0.1053 -1.57835 -0.3122 -0.50046 -0.2069 -0.95518 -0.5105 -1.3381 -0.8934 -0.38292 -0.3829 -0.68652 -0.8376 -0.89339 -1.3381 -0.20687 -0.5004 -0.31295 -1.0368 -0.31216 -1.5783v-2.748h42.293" stroke-width="1"></path><path stroke="#0f3f6c" stroke-linecap="round" stroke-linejoin="round" d="M35.3067 58.1399c-0.1764 0.0894 -0.3754 0.1244 -0.5717 0.1007 -0.1964 -0.0237 -0.3813 -0.1051 -0.5313 -0.2339 -0.1501 -0.1288 -0.2586 -0.2992 -0.3118 -0.4897 -0.0533 -0.1905 -0.0488 -0.3924 0.0128 -0.5804 0.0616 -0.1879 0.1775 -0.3534 0.3331 -0.4754 0.1556 -0.1221 0.3439 -0.1952 0.5411 -0.2103 0.1972 -0.015 0.3945 0.0288 0.5668 0.1259 0.1723 0.0971 0.3119 0.243 0.4013 0.4195 0.0593 0.1171 0.0951 0.2448 0.1051 0.3757 0.01 0.1309 -0.0059 0.2626 -0.0468 0.3874 -0.0409 0.1247 -0.106 0.2402 -0.1915 0.3399 -0.0856 0.0996 -0.1899 0.1814 -0.3071 0.2406v0Z" stroke-width="1"></path><path stroke="#0f3f6c" stroke-linecap="round" stroke-linejoin="round" d="M64.084 23.8931c0 -1.4587 -0.5795 -2.8577 -1.6109 -3.8891 -1.0315 -1.0315 -2.4304 -1.6109 -3.8891 -1.6109H10.5c-1.45869 0 -2.85764 0.5794 -3.88909 1.6109C5.57946 21.0354 5 22.4344 5 23.8931v30.229h42.293" stroke-width="1"></path><path stroke="#0f3f6c" stroke-linecap="round" stroke-linejoin="round" d="M54.6311 54.1221h9.453" stroke-width="1"></path><path stroke="#0f3f6c" stroke-linecap="round" stroke-linejoin="round" d="M82.634 41.7559H59.275l-1.205 10.844c-0.0214 0.1921 -0.002 0.3865 0.0569 0.5706 0.0589 0.1841 0.156 0.3537 0.2849 0.4978 0.1289 0.144 0.2868 0.2592 0.4632 0.338 0.1765 0.0789 0.3677 0.1196 0.561 0.1196h23.037c0.1932 -0.0001 0.3843 -0.041 0.5607 -0.1199s0.3342 -0.1941 0.4631 -0.3381c0.1289 -0.1439 0.226 -0.3135 0.2849 -0.4975 0.059 -0.1841 0.0785 -0.3785 0.0573 -0.5705l-1.205 -10.844Z" stroke-width="1"></path><path stroke="#0f3f6c" stroke-linecap="round" stroke-linejoin="round" d="M93.626 41.7558c0.1804 0 0.3591 -0.0355 0.5258 -0.1046 0.1667 -0.069 0.3181 -0.1702 0.4457 -0.2978 0.1276 -0.1276 0.2288 -0.2791 0.2979 -0.4458 0.069 -0.1667 0.1046 -0.3454 0.1046 -0.5258 0 -0.1804 -0.0356 -0.3591 -0.1046 -0.5258 -0.0691 -0.1667 -0.1703 -0.3182 -0.2979 -0.4458 -0.1276 -0.1275 -0.279 -0.2287 -0.4457 -0.2978 -0.1667 -0.069 -0.3454 -0.1046 -0.5258 -0.1046H48.282c-0.1805 0 -0.3591 0.0356 -0.5259 0.1046 -0.1667 0.0691 -0.3181 0.1703 -0.4457 0.2978 -0.1276 0.1276 -0.2288 0.2791 -0.2979 0.4458 -0.069 0.1667 -0.1045 0.3454 -0.1045 0.5258 0 0.1804 0.0355 0.3591 0.1045 0.5258 0.0691 0.1667 0.1703 0.3182 0.2979 0.4458s0.279 0.2288 0.4457 0.2978c0.1668 0.0691 0.3454 0.1046 0.5259 0.1046h45.344Z" stroke-width="1"></path><path stroke="#0f3f6c" stroke-linecap="round" stroke-linejoin="round" d="M74.389 38.3208c0 -1.138 -1.537 -2.061 -3.435 -2.061 -1.898 0 -3.435 0.923 -3.435 2.061v0.687h6.87v-0.687Z" stroke-width="1"></path><path stroke="#0f3f6c" stroke-linecap="round" stroke-linejoin="round" d="M88.8171 48.6259c1.1383 0 2.061 -0.9227 2.061 -2.061s-0.9227 -2.061 -2.061 -2.061 -2.061 0.9227 -2.061 2.061 0.9227 2.061 2.061 2.061Z" stroke-width="1"></path><path stroke="#0f3f6c" stroke-linecap="round" stroke-linejoin="round" d="M90.8781 50.687c0 -0.5466 -0.2171 -1.0709 -0.6036 -1.4574 -0.3866 -0.3865 -0.9108 -0.6036 -1.4574 -0.6036s-1.0708 0.2171 -1.4573 0.6036c-0.3866 0.3865 -0.6037 0.9108 -0.6037 1.4574V55.5l4.122 2.748v-7.561Z" stroke-width="1"></path><path stroke="#0f3f6c" stroke-linecap="round" stroke-linejoin="round" d="M88.8169 44.5038v-6.87" stroke-width="1"></path><path stroke="#0f3f6c" stroke-linecap="round" stroke-linejoin="round" d="M59.1919 66.4888h14.593c0.3644 0 0.7139 0.1447 0.9716 0.4024 0.2576 0.2577 0.4024 0.6072 0.4024 0.9716 0 0.3644 -0.1448 0.7139 -0.4024 0.9715 -0.2577 0.2577 -0.6072 0.4025 -0.9716 0.4025h-14.593" stroke-width="1"></path><path stroke="#0f3f6c" stroke-linecap="round" stroke-linejoin="round" d="M56.8001 76.1069h16.985c0.3644 0 0.7139 0.1448 0.9716 0.4025 0.2576 0.2576 0.4024 0.6071 0.4024 0.9715 0 0.3644 -0.1448 0.7139 -0.4024 0.9716 -0.2577 0.2577 -0.6072 0.4024 -0.9716 0.4024h-17.341" stroke-width="1"></path><path stroke="#0f3f6c" stroke-linecap="round" stroke-linejoin="round" d="M53.009 78.855h-6.018" stroke-width="1"></path><path stroke="#0f3f6c" stroke-linecap="round" stroke-linejoin="round" d="M53.009 76.1069h-6.018" stroke-width="1"></path><path stroke="#0f3f6c" stroke-linecap="round" stroke-linejoin="round" d="M47.073 76.1069h5.936" stroke-width="1"></path><path stroke="#0f3f6c" stroke-linecap="round" stroke-linejoin="round" d="M56.802 76.1071h17.065v-6.87H59.192" stroke-width="1"></path><path stroke="#0f3f6c" stroke-linecap="round" stroke-linejoin="round" d="M73.8741 71.9851h-9.618" stroke-width="1"></path><path stroke="#0f3f6c" stroke-linecap="round" stroke-linejoin="round" d="M61.508 71.9851H58.76" stroke-width="1"></path><path stroke="#0f3f6c" stroke-linecap="round" stroke-linejoin="round" d="M58.313 63.7402h20.363c0.3581 0.0097 0.6983 0.1587 0.9482 0.4155 0.2499 0.2567 0.3897 0.6008 0.3897 0.959 0 0.3583 -0.1398 0.7024 -0.3897 0.9591 -0.2499 0.2567 -0.5901 0.4058 -0.9482 0.4154H59.192" stroke-width="1"></path><path stroke="#0f3f6c" stroke-linecap="round" stroke-linejoin="round" d="M51.484 61.6791c-0.1927 -0.4323 -0.2912 -0.9007 -0.289 -1.374 0.0006 -0.9111 0.3628 -1.7846 1.007 -2.4287 0.6443 -0.6441 1.518 -1.0061 2.429 -1.0063h24.045c0.3644 0 0.7139 -0.1448 0.9716 -0.4025 0.2577 -0.2576 0.4024 -0.6071 0.4024 -0.9715 0 -0.3644 -0.1447 -0.7139 -0.4024 -0.9716 -0.2577 -0.2577 -0.6072 -0.4024 -0.9716 -0.4024H54.631c-1.6399 0 -3.2127 0.6514 -4.3724 1.8109s-1.8113 2.7321 -1.8116 4.3721" stroke-width="1"></path><path stroke="#0f3f6c" stroke-linecap="round" stroke-linejoin="round" d="M58.313 63.7401h20.363v-6.87H54.631c-0.9102 0.0016 -1.7825 0.3641 -2.4258 1.0081 -0.6432 0.644 -1.0047 1.5168 -1.0052 2.4269 -0.0022 0.4733 0.0963 0.9417 0.289 1.374" stroke-width="1"></path><path stroke="#0f3f6c" stroke-linecap="round" stroke-linejoin="round" d="M78.6829 59.6182h-9.618" stroke-width="1"></path><path stroke="#0f3f6c" stroke-linecap="round" stroke-linejoin="round" d="M66.3171 59.6182h-2.748" stroke-width="1"></path><path stroke="#0f3f6c" stroke-linecap="round" stroke-linejoin="round" d="M31.0211 77.4809c-0.0002 -0.1809 0.0355 -0.36 0.1048 -0.5271 0.0693 -0.1671 0.1709 -0.3189 0.2991 -0.4465 0.1281 -0.1277 0.2802 -0.2288 0.4476 -0.2975 0.1673 -0.0687 0.3466 -0.1037 0.5275 -0.1029h20.606v-1.374c0.0001 -0.1805 -0.0353 -0.3592 -0.1043 -0.526 -0.069 -0.1667 -0.1703 -0.3183 -0.2979 -0.4459s-0.2791 -0.2288 -0.4459 -0.2978c-0.1667 -0.069 -0.3455 -0.1044 -0.5259 -0.1043h-19.232c-1.0932 0 -2.1417 0.4343 -2.9147 1.2073 -0.773 0.773 -1.2073 1.8215 -1.2073 2.9147s0.4343 2.1417 1.2073 2.9147c0.773 0.773 1.8215 1.2073 2.9147 1.2073h19.232c0.3644 0 0.7139 -0.1448 0.9715 -0.4025 0.2577 -0.2576 0.4025 -0.6071 0.4025 -0.9715v-1.374h-20.606" stroke-width="1"></path><path stroke="#0f3f6c" stroke-linecap="round" stroke-linejoin="round" d="M31.1069 77.4809c-0.0001 0.1805 0.0354 0.3592 0.1044 0.526s0.1702 0.3183 0.2978 0.4459c0.1276 0.1276 0.2791 0.2288 0.4459 0.2978 0.1667 0.069 0.3455 0.1045 0.5259 0.1043h19.237v-2.748h-19.237" stroke-width="1"></path><path stroke="#0f3f6c" stroke-linecap="round" stroke-linejoin="round" d="M35.143 65.1152c-1.0932 0 -2.1417 0.4343 -2.9147 1.2073 -0.773 0.7731 -1.2073 1.8215 -1.2073 2.9147 0 1.0933 0.4343 2.1417 1.2073 2.9147 0.773 0.7731 1.8215 1.2073 2.9147 1.2073H54.38c0.3644 0 0.7139 -0.1447 0.9716 -0.4024 0.2576 -0.2577 0.4024 -0.6072 0.4024 -0.9716v-1.374H35.143c-0.3644 0 -0.7139 -0.1447 -0.9716 -0.4024 -0.2576 -0.2577 -0.4024 -0.6072 -0.4024 -0.9716 0 -0.3644 0.1448 -0.7139 0.4024 -0.9715 0.2577 -0.2577 0.6072 -0.4025 0.9716 -0.4025h20.611v-1.374c0.0001 -0.1804 -0.0353 -0.3592 -0.1043 -0.5259 -0.069 -0.1668 -0.1702 -0.3183 -0.2978 -0.4459 -0.1277 -0.1276 -0.2792 -0.2288 -0.4459 -0.2978 -0.1668 -0.069 -0.3455 -0.1045 -0.526 -0.1044H35.143Z" stroke-width="1"></path><path stroke="#0f3f6c" stroke-linecap="round" stroke-linejoin="round" d="M35.229 70.6108h19.237v-2.748H35.229" stroke-width="1"></path><path stroke="#0f3f6c" stroke-linecap="round" stroke-linejoin="round" d="M64.084 35.5721v-11.679" stroke-width="1"></path><path stroke="#0f3f6c" stroke-linecap="round" stroke-linejoin="round" d="M48.6 61.6792c-0.0992 -0.4513 -0.1498 -0.9119 -0.151 -1.374" stroke-width="1"></path></svg>