<svg viewBox="0 0 100 100" xmlns="http://www.w3.org/2000/svg" id="Work-Living-Room-4--Streamline-Ux.svg" height="100" width="100"><desc>Work Living Room 4 Streamline Illustration: https://streamlinehq.com</desc><path d="M51.279 29.89a0.316 0.316 0 0 0 -0.075 0.062 0.629 0.629 0 0 0 -0.161 0.111 9 9 0 0 0 -0.857 0.683v0.013c-0.049 0.037 -0.1 0.087 -0.149 0.124 -0.186 0.174 -0.372 0.347 -0.546 0.534a8.363 8.363 0 0 0 -0.633 0.7c-0.149 0.174 -0.286 0.347 -0.422 0.534a11.085 11.085 0 0 0 -0.8 1.2 4.53 4.53 0 0 0 -0.273 0.484 13.468 13.468 0 0 0 -0.7 1.6c-0.05 0.149 -0.1 0.286 -0.149 0.435 -0.087 0.3 -0.174 0.6 -0.236 0.906a7.619 7.619 0 0 0 -0.149 0.757 0.645 0.645 0 0 0 -0.025 0.149c-0.037 0.211 -0.062 0.422 -0.086 0.646h4.292v1.266a6.566 6.566 0 0 1 -0.1 1.216h0.1v7.449H59v-0.447a3.223 3.223 0 0 1 2.781 -3.265h0.074a3.039 3.039 0 0 1 2.036 0.559" fill="none" stroke="#0f3f6c" stroke-linecap="round" stroke-linejoin="round" stroke-width="1"></path><path d="M66.448 42.552v-2.483h4.345c0 -0.31 -0.012 -0.608 -0.037 -0.906a0.634 0.634 0 0 0 -0.013 -0.163c-0.024 -0.273 -0.049 -0.546 -0.1 -0.819a0.6 0.6 0 0 0 -0.025 -0.149c-0.037 -0.248 -0.087 -0.509 -0.149 -0.757a7.882 7.882 0 0 0 -0.347 -1.2 5.648 5.648 0 0 0 -0.236 -0.646 8.266 8.266 0 0 0 -0.435 -0.956 5.013 5.013 0 0 0 -0.31 -0.571 6.816 6.816 0 0 0 -0.385 -0.645 12.339 12.339 0 0 0 -2.185 -2.495v-0.013a8.988 8.988 0 0 0 -0.856 -0.683 4.757 4.757 0 0 0 -0.4 -0.285c-0.062 -0.05 -0.137 -0.087 -0.211 -0.137a2.076 2.076 0 0 0 -0.3 -0.186 3.537 3.537 0 0 0 -0.36 -0.211c-0.2 -0.112 -0.41 -0.223 -0.609 -0.323s-0.422 -0.2 -0.633 -0.285 -0.422 -0.174 -0.633 -0.248c-0.012 -0.013 -0.012 -0.013 -0.025 -0.013l-0.558 -0.186" fill="none" stroke="#0f3f6c" stroke-linecap="round" stroke-linejoin="round" stroke-width="1"></path><path d="M55.9 31.379s0.322 10.713 -1.949 17.38H50.31V41.31h-0.1a6.566 6.566 0 0 0 0.1 -1.216v-1.266h-4.282c0.024 -0.224 0.049 -0.435 0.086 -0.646a0.645 0.645 0 0 1 0.025 -0.149 7.619 7.619 0 0 1 0.149 -0.757c0.062 -0.31 0.149 -0.608 0.236 -0.906 0.05 -0.149 0.1 -0.286 0.149 -0.435a13.468 13.468 0 0 1 0.7 -1.6 4.53 4.53 0 0 1 0.273 -0.484 11.085 11.085 0 0 1 0.8 -1.2c0.136 -0.187 0.273 -0.36 0.422 -0.534a8.363 8.363 0 0 1 0.633 -0.7c0.174 -0.187 0.36 -0.36 0.546 -0.534 0.05 -0.037 0.1 -0.087 0.149 -0.124v-0.013a9 9 0 0 1 0.857 -0.683 0.629 0.629 0 0 1 0.161 -0.111 0.316 0.316 0 0 1 0.075 -0.062" fill="none" stroke="#0f3f6c" stroke-linecap="round" stroke-linejoin="round" stroke-width="1"></path><path d="m55.9 31.379 -2.669 1.775a1.245 1.245 0 0 1 -1.738 -0.36l-1.3 -2.035v-0.013a9 9 0 0 1 0.857 -0.683 0.629 0.629 0 0 1 0.161 -0.111 0.316 0.316 0 0 1 0.075 -0.062" fill="none" stroke="#0f3f6c" stroke-linecap="round" stroke-linejoin="round" stroke-width="1"></path><path d="M51.366 29.828h-0.013" fill="none" stroke="#0f3f6c" stroke-linecap="round" stroke-linejoin="round" stroke-width="1"></path><path d="M45.345 68.621h-2.483v-17.38a2.49 2.49 0 0 1 2.483 -2.482h26.689a2.46 2.46 0 0 1 1.565 0.558" fill="none" stroke="#0f3f6c" stroke-linecap="round" stroke-linejoin="round" stroke-width="1"></path><path d="m74.517 52.619 -0.546 -0.186a0.633 0.633 0 0 0 -0.782 0.4l-0.608 1.813 -0.025 -0.013 -0.807 2.347 0.037 0.012 -2.967 8.777a0.616 0.616 0 0 0 0.385 0.782l2.359 0.794a0.555 0.555 0 0 0 0.2 0.037h-7.87l1.241 -3.289a1.246 1.246 0 0 0 -1.166 -1.676h-3.24l1.526 -0.608a4.477 4.477 0 0 0 2.5 -5.81l-0.559 -1.378a0.594 0.594 0 0 0 -0.571 -0.385 0.608 0.608 0 0 0 -0.571 0.373l-0.819 1.9a8.432 8.432 0 0 0 -2.309 -3.637 0.63 0.63 0 0 0 -0.857 0 8.432 8.432 0 0 0 -2.309 3.637l-0.819 -1.9a0.629 0.629 0 0 0 -1.155 0.012L54.233 56a4.466 4.466 0 0 0 2.5 5.81l1.515 0.608h-3.1a1.241 1.241 0 0 0 -1.167 1.676l1.219 3.285h-5.51a1.246 1.246 0 0 0 -1.242 1.242" fill="none" stroke="#0f3f6c" stroke-linecap="round" stroke-linejoin="round" stroke-width="1"></path><path d="M70.793 40.069h-4.345v2.483a3.107 3.107 0 0 1 -2.557 3.054 3.039 3.039 0 0 0 -2.036 -0.559 72.96 72.96 0 0 1 -0.993 -13.668l1.688 -2.991h0.025c0.211 0.074 0.422 0.161 0.633 0.248s0.422 0.186 0.633 0.285 0.41 0.211 0.609 0.323a3.537 3.537 0 0 1 0.36 0.211 2.076 2.076 0 0 1 0.3 0.186c0.074 0.05 0.149 0.087 0.211 0.137a4.757 4.757 0 0 1 0.4 0.285 8.988 8.988 0 0 1 0.856 0.683v0.013a12.339 12.339 0 0 1 2.185 2.495 6.816 6.816 0 0 1 0.385 0.645 5.175 5.175 0 0 1 0.31 0.571 8.266 8.266 0 0 1 0.435 0.956 5.648 5.648 0 0 1 0.236 0.646 7.882 7.882 0 0 1 0.347 1.2c0.062 0.248 0.112 0.509 0.149 0.757a0.6 0.6 0 0 1 0.025 0.149c0.05 0.273 0.075 0.546 0.1 0.819a0.634 0.634 0 0 1 0.013 0.162c0.019 0.302 0.031 0.6 0.031 0.91Z" fill="none" stroke="#0f3f6c" stroke-linecap="round" stroke-linejoin="round" stroke-width="1"></path><path d="m66.572 30.746 -1.3 2.049a1.245 1.245 0 0 1 -1.738 0.359l-2.669 -1.775 1.688 -3a12.4 12.4 0 0 1 4.019 2.367Z" fill="none" stroke="#0f3f6c" stroke-linecap="round" stroke-linejoin="round" stroke-width="1"></path><path d="M71.414 40.69v1.241a0.615 0.615 0 0 1 -0.621 0.621h-4.345v-2.483h4.345a0.615 0.615 0 0 1 0.621 0.621Z" fill="none" stroke="#0f3f6c" stroke-linecap="round" stroke-linejoin="round" stroke-width="1"></path><path d="M51.366 29.84a7.426 7.426 0 0 0 10.626 -1.651 7.448 7.448 0 0 0 1.191 -2.743 1.517 1.517 0 0 0 0.162 -3.005v-0.993A7.454 7.454 0 0 0 55.9 14c-0.2 0 -0.385 0.012 -0.571 0.025a1.537 1.537 0 0 0 -0.336 0.037 2.031 2.031 0 0 0 -0.4 0.062 1.985 1.985 0 0 0 -0.285 0.05 5.9 5.9 0 0 0 -1.1 0.335 1.808 1.808 0 0 0 -0.36 0.149 6.744 6.744 0 0 0 -0.683 0.348c-0.137 0.074 -0.261 0.161 -0.4 0.248a7.361 7.361 0 0 0 -1.13 0.931c-0.136 0.136 -0.273 0.273 -0.4 0.422a7.416 7.416 0 0 0 -0.733 1.03 2.675 2.675 0 0 0 -0.248 0.447 7.282 7.282 0 0 0 -0.807 3.364v2.483a7.435 7.435 0 0 0 2.905 5.9c0 0.012 0.013 0 0.013 0" fill="none" stroke="#0f3f6c" stroke-linecap="round" stroke-linejoin="round" stroke-width="1"></path><path d="M56.827 21.448a0.932 0.932 0 1 0 0.931 0.931 0.931 0.931 0 0 0 -0.931 -0.931Z" fill="#0f3f6c" stroke-width="1"></path><path d="M51.861 21.448a0.932 0.932 0 1 0 0.932 0.931 0.931 0.931 0 0 0 -0.932 -0.931Z" fill="#0f3f6c" stroke-width="1"></path><path d="M56.517 27.091a3.357 3.357 0 0 1 -3.725 0" fill="none" stroke="#0f3f6c" stroke-linecap="round" stroke-linejoin="round" stroke-width="1"></path><path d="m59.853 19.767 0.285 0.476a2.483 2.483 0 0 0 2.129 1.205h1.077a7.444 7.444 0 0 0 -14.086 -3.366 5.54 5.54 0 0 0 3.534 0.884 37.728 37.728 0 0 0 4.6 -0.382 2.481 2.481 0 0 1 2.461 1.183Z" fill="none" stroke="#0f3f6c" stroke-linecap="round" stroke-linejoin="round" stroke-width="1"></path><path d="M70.793 42.552a7.428 7.428 0 0 1 -3.339 6.207h-2.247v-0.621a3.1 3.1 0 0 0 -1.316 -2.532 3.107 3.107 0 0 0 2.557 -3.054Z" fill="none" stroke="#0f3f6c" stroke-linecap="round" stroke-linejoin="round" stroke-width="1"></path><path d="M65.207 48.138v0.621H59v-0.447a3.223 3.223 0 0 1 2.781 -3.265h0.074a3.039 3.039 0 0 1 2.036 0.559 3.1 3.1 0 0 1 1.316 2.532Z" fill="none" stroke="#0f3f6c" stroke-linecap="round" stroke-linejoin="round" stroke-width="1"></path><path d="M29.592 64.9h-3.749a3.033 3.033 0 0 1 0.608 2.222l-0.174 1.5h2.88l-0.174 -1.5a3.029 3.029 0 0 1 0.609 -2.222Zm0 0h-3.749a3.033 3.033 0 0 1 0.608 2.222l-0.174 1.5h2.88l-0.174 -1.5a3.029 3.029 0 0 1 0.609 -2.222Zm0 0h-3.749a3.033 3.033 0 0 1 0.608 2.222l-0.174 1.5h2.88l-0.174 -1.5a3.029 3.029 0 0 1 0.609 -2.222Zm0 0h-3.749a3.033 3.033 0 0 1 0.608 2.222l-0.174 1.5h2.88l-0.174 -1.5a3.029 3.029 0 0 1 0.609 -2.222Zm-0.559 -9.584a1.834 1.834 0 0 0 -2.147 0 1.861 1.861 0 1 0 2.942 1.515 1.809 1.809 0 0 0 -0.795 -1.518Zm-11 9.584a1.246 1.246 0 0 1 -1.241 -1.242v-1.244h1.241a1.246 1.246 0 0 1 -1.241 -1.242v-9.931a1.227 1.227 0 0 1 0.335 -0.844 10.566 10.566 0 0 1 0.547 -1.638H13.69a2.49 2.49 0 0 0 -2.483 2.482v18.621h0.335a2.478 2.478 0 0 1 2.148 -1.241h6.343l0.261 -2.222a3.039 3.039 0 0 1 0.273 -0.944 3.119 3.119 0 0 1 0.323 -0.558Zm22.346 -16.141h-2.122A10.67 10.67 0 0 1 38.8 50.4a1.227 1.227 0 0 1 0.335 0.844v9.931a1.246 1.246 0 0 1 -1.235 1.239h1.241v1.241A1.246 1.246 0 0 1 37.9 64.9h-3.355a3.158 3.158 0 0 1 0.583 1.427c0 0.025 0.013 0.05 0.013 0.075l0.26 2.222h7.461V51.241a2.49 2.49 0 0 0 -2.483 -2.482ZM29.592 64.9h-3.749a3.033 3.033 0 0 1 0.608 2.222l-0.174 1.5h2.88l-0.174 -1.5a3.029 3.029 0 0 1 0.609 -2.222Zm0 0h-3.749a3.033 3.033 0 0 1 0.608 2.222l-0.174 1.5h2.88l-0.174 -1.5a3.029 3.029 0 0 1 0.609 -2.222Zm0 0h-3.749a3.033 3.033 0 0 1 0.608 2.222l-0.174 1.5h2.88l-0.174 -1.5a3.029 3.029 0 0 1 0.609 -2.222Z" fill="none" stroke="#0f3f6c" stroke-linecap="round" stroke-linejoin="round" stroke-width="1"></path><path d="M72.345 66.957a0.611 0.611 0 0 1 -0.584 0.422h2.756v-6.852Zm0.211 -12.327 -0.807 2.347 0.037 0.012 0.8 -2.346Zm-12.637 -1.762a0.63 0.63 0 0 0 -0.857 0 8.432 8.432 0 0 0 -2.309 3.637v0.012l2.52 5.9h0.427l2.533 -5.9v-0.012a8.432 8.432 0 0 0 -2.314 -3.637Z" fill="none" stroke="#0f3f6c" stroke-linecap="round" stroke-linejoin="round" stroke-width="1"></path><path d="m76.715 54.022 -2.074 6.145 -0.124 0.347v0.013l-2.172 6.43a0.611 0.611 0 0 1 -0.584 0.422 0.555 0.555 0 0 1 -0.2 -0.037l-2.361 -0.794a0.616 0.616 0 0 1 -0.385 -0.782l2.967 -8.777 2.731 0.919 0.77 0.26 0.794 -2.346 -1.564 -0.534 -1.936 -0.645 0.608 -1.813a0.633 0.633 0 0 1 0.782 -0.4l0.546 0.186 1.813 0.621a0.611 0.611 0 0 1 0.389 0.785Z" fill="none" stroke="#0f3f6c" stroke-linecap="round" stroke-linejoin="round" stroke-width="1"></path><path d="m48.448 79.793 -3.103 0 -4.966 0 -3.649 0 -1.031 -8.69 -0.298 -2.482 7.461 0 2.483 0" fill="none" stroke="#0f3f6c" stroke-linecap="round" stroke-linejoin="round" stroke-width="1"></path><path d="M48.448 68.621a1.246 1.246 0 0 0 1.242 1.241h1.862v9.931" fill="none" stroke="#0f3f6c" stroke-linecap="round" stroke-linejoin="round" stroke-width="1"></path><path d="M16.172 79.793v1.241a1.245 1.245 0 0 1 -1.241 1.242h-2.483a1.246 1.246 0 0 1 -1.241 -1.242v-1.241Z" fill="none" stroke="#0f3f6c" stroke-linecap="round" stroke-linejoin="round" stroke-width="1"></path><path d="M73.276 82.277h-2.483a1.24 1.24 0 0 1 -1.241 -1.241V79.8h4.965v1.241a1.241 1.241 0 0 1 -1.241 1.236Z" fill="none" stroke="#0f3f6c" stroke-linecap="round" stroke-linejoin="round" stroke-width="1"></path><path d="M45.345 79.793v1.241a1.246 1.246 0 0 1 -1.245 1.242h-2.479a1.246 1.246 0 0 1 -1.242 -1.242v-1.241Z" fill="none" stroke="#0f3f6c" stroke-linecap="round" stroke-linejoin="round" stroke-width="1"></path><path d="m20.033 68.621 -0.3 2.482 -1.03 8.69h-7.5v-9.931h0.335a2.478 2.478 0 0 1 2.148 -1.241Z" fill="none" stroke="#0f3f6c" stroke-linecap="round" stroke-linejoin="round" stroke-width="1"></path><path d="m30.473 79.793 -5.512 0 1.018 -8.69 0.298 -2.482 2.88 0 0.298 2.482 1.018 8.69z" fill="none" stroke="#0f3f6c" stroke-linecap="round" stroke-linejoin="round" stroke-width="1"></path><path d="m54.655 79.793 0 -6.207 19.862 0" fill="none" stroke="#0f3f6c" stroke-linecap="round" stroke-linejoin="round" stroke-width="1"></path><path d="m74.517 76.69 0 3.103 -4.965 0 -11.793 0" fill="none" stroke="#0f3f6c" stroke-linecap="round" stroke-linejoin="round" stroke-width="1"></path><path d="M11.207 62.414v17.379H6.241A1.245 1.245 0 0 1 5 78.552V64.9a2.49 2.49 0 0 1 2.483 -2.483Z" fill="none" stroke="#0f3f6c" stroke-linecap="round" stroke-linejoin="round" stroke-width="1"></path><path d="M79.483 63.655h2.483v3.724h-2.483z" fill="none" stroke="#0f3f6c" stroke-linecap="round" stroke-linejoin="round" stroke-width="1"></path><path d="M79.483 63.655v3.724h-4.966v-4.345a0.615 0.615 0 0 0 0.621 0.621Z" fill="none" stroke="#0f3f6c" stroke-linecap="round" stroke-linejoin="round" stroke-width="1"></path><path d="M80.724 76.69v1.862a1.245 1.245 0 0 1 -1.241 1.241h-4.966v-3.1" fill="none" stroke="#0f3f6c" stroke-linecap="round" stroke-linejoin="round" stroke-width="1"></path><path d="m80.724 73.586 -6.207 0" fill="none" stroke="#0f3f6c" stroke-linecap="round" stroke-linejoin="round" stroke-width="1"></path><path d="M51.552 69.862h3.103v13.034h-3.103z" fill="none" stroke="#0f3f6c" stroke-linecap="round" stroke-linejoin="round" stroke-width="1"></path><path d="M54.655 82.9v1.551a1.552 1.552 0 1 1 -3.1 0V82.9Z" fill="none" stroke="#0f3f6c" stroke-linecap="round" stroke-linejoin="round" stroke-width="1"></path><path d="M54.655 69.862h34.138v3.724H54.655z" fill="none" stroke="#0f3f6c" stroke-linecap="round" stroke-linejoin="round" stroke-width="1"></path><path d="M95 68.621a1.245 1.245 0 0 1 -1.241 1.241H49.69a1.242 1.242 0 1 1 0 -2.483h44.069A1.246 1.246 0 0 1 95 68.621Z" fill="none" stroke="#0f3f6c" stroke-linecap="round" stroke-linejoin="round" stroke-width="1"></path><path d="M54.655 82.9v1.551a1.552 1.552 0 1 1 -3.1 0V82.9Z" fill="none" stroke="#0f3f6c" stroke-linecap="round" stroke-linejoin="round" stroke-width="1"></path><path d="M91.9 69.862v14.586a1.552 1.552 0 0 1 -3.1 0V69.862Z" fill="none" stroke="#0f3f6c" stroke-linecap="round" stroke-linejoin="round" stroke-width="1"></path><path d="M91.9 84.448a1.552 1.552 0 0 1 -3.1 0V82.9h3.1Z" fill="none" stroke="#0f3f6c" stroke-linecap="round" stroke-linejoin="round" stroke-width="1"></path><path d="M79.483 63.655v3.724h-1.862a0.614 0.614 0 0 1 -0.621 -0.62v-2.483a0.615 0.615 0 0 1 0.621 -0.621Z" fill="none" stroke="#0f3f6c" stroke-linecap="round" stroke-linejoin="round" stroke-width="1"></path><path d="M91.9 64.276v2.483a0.615 0.615 0 0 1 -0.621 0.62h-9.31v-3.724h9.31a0.615 0.615 0 0 1 0.621 0.621Z" fill="none" stroke="#0f3f6c" stroke-linecap="round" stroke-linejoin="round" stroke-width="1"></path><path d="M77 59.931v3.724h-1.862a0.615 0.615 0 0 1 -0.621 -0.621v-2.52l0.124 -0.347a0.678 0.678 0 0 1 0.5 -0.236Z" fill="none" stroke="#0f3f6c" stroke-linecap="round" stroke-linejoin="round" stroke-width="1"></path><path d="M89.414 60.552v2.482a0.615 0.615 0 0 1 -0.621 0.621h-9.31v-3.724h9.31a0.615 0.615 0 0 1 0.621 0.621Z" fill="none" stroke="#0f3f6c" stroke-linecap="round" stroke-linejoin="round" stroke-width="1"></path><path d="M77 59.931h2.483v3.724H77z" fill="none" stroke="#0f3f6c" stroke-linecap="round" stroke-linejoin="round" stroke-width="1"></path><path d="m76.081 55.822 -0.794 2.346 -0.77 -0.26 -2.731 -0.919 0.795 -2.346 1.936 0.645 1.564 0.534z" fill="none" stroke="#0f3f6c" stroke-linecap="round" stroke-linejoin="round" stroke-width="1"></path><path d="m72.581 54.643 -0.795 2.346 -0.037 -0.012 0.807 -2.347 0.025 0.013z" fill="none" stroke="#0f3f6c" stroke-linecap="round" stroke-linejoin="round" stroke-width="1"></path><path d="M59.273 62.414h-1.03l-1.515 -0.608a4.466 4.466 0 0 1 -2.5 -5.81l0.546 -1.378a0.629 0.629 0 0 1 1.155 -0.012l0.819 1.9v0.012Z" fill="none" stroke="#0f3f6c" stroke-linecap="round" stroke-linejoin="round" stroke-width="1"></path><path d="M62.228 56.505v0.012l-2.533 5.9h-0.422l-2.52 -5.9v-0.012a8.432 8.432 0 0 1 2.309 -3.637 0.63 0.63 0 0 1 0.857 0 8.432 8.432 0 0 1 2.309 3.637Z" fill="none" stroke="#0f3f6c" stroke-linecap="round" stroke-linejoin="round" stroke-width="1"></path><path d="m62.252 61.806 -1.526 0.608H59.7l2.533 -5.9v-0.012l0.819 -1.9a0.608 0.608 0 0 1 0.571 -0.373 0.594 0.594 0 0 1 0.571 0.385L64.748 56a4.477 4.477 0 0 1 -2.496 5.806Z" fill="none" stroke="#0f3f6c" stroke-linecap="round" stroke-linejoin="round" stroke-width="1"></path><path d="m65.132 64.09 -1.241 3.289H55.2l-1.228 -3.289a1.241 1.241 0 0 1 1.167 -1.676h8.827a1.246 1.246 0 0 1 1.166 1.676Z" fill="none" stroke="#0f3f6c" stroke-linecap="round" stroke-linejoin="round" stroke-width="1"></path><path d="M17.91 48.262a3.6 3.6 0 0 1 -1.129 -2.731 3.878 3.878 0 0 1 0.173 -1.142 0.86 0.86 0 0 1 -0.173 0.025c-1.229 0 -2.235 -1.341 -2.235 -2.98s1.006 -2.979 2.235 -2.979a0.991 0.991 0 0 1 0.2 0.025 5.808 5.808 0 0 1 -0.2 -1.514 5.7 5.7 0 0 1 0.36 -2.024 4.548 4.548 0 0 1 -1.1 -3.19c0 -2.061 1 -3.724 2.234 -3.724a9.428 9.428 0 0 1 9.683 -9.683 9.428 9.428 0 0 1 9.683 9.683c1.241 0 2.234 1.663 2.234 3.724a4.552 4.552 0 0 1 -1.1 3.19 5.722 5.722 0 0 1 0.36 2.024 5.807 5.807 0 0 1 -0.2 1.514 1.272 1.272 0 0 1 0.2 -0.025c1.241 0 2.234 1.328 2.234 2.979a3.516 3.516 0 0 1 -2.334 3.253" fill="none" stroke="#0f3f6c" stroke-linecap="round" stroke-linejoin="round" stroke-width="1"></path><path d="M38.343 47.9a1.423 1.423 0 0 1 -0.322 0.348" fill="none" stroke="#0f3f6c" stroke-linecap="round" stroke-linejoin="round" stroke-width="1"></path><path d="M33.368 26.893a2.074 2.074 0 0 0 2.039 2.063l0.007 0.065v1.489c2.125 0 1.982 3.724 -0.373 3.724h-0.006a7.4 7.4 0 0 1 -14.139 0h-0.006c-2.355 0 -2.5 -3.724 -0.373 -3.724v-1.489c0 -0.023 0.007 -0.043 0.007 -0.065a2.074 2.074 0 0 0 2.039 -2.063 1.474 1.474 0 0 1 1.728 -1.217 2.574 2.574 0 0 0 2.185 -1.124s2.172 2.687 6.892 2.341Z" fill="none" stroke="#0f3f6c" stroke-linecap="round" stroke-linejoin="round" stroke-width="1"></path><path d="M26.218 35.16a3.356 3.356 0 0 0 3.724 0" fill="none" stroke="#0f3f6c" stroke-linecap="round" stroke-linejoin="round" stroke-width="1"></path><path d="M30.5 29.574a0.932 0.932 0 1 0 0.931 0.931 0.931 0.931 0 0 0 -0.931 -0.931Z" fill="#0f3f6c" stroke-width="1"></path><path d="M25.535 29.574a0.932 0.932 0 1 0 0.931 0.931 0.931 0.931 0 0 0 -0.931 -0.931Z" fill="#0f3f6c" stroke-width="1"></path><path d="M21.138 44.277V50h-3.1a1.212 1.212 0 0 0 -0.906 0.4 10.566 10.566 0 0 1 0.547 -1.638c0.074 -0.174 0.148 -0.336 0.235 -0.5a11.1 11.1 0 0 1 3.224 -3.985Z" fill="none" stroke="#0f3f6c" stroke-linecap="round" stroke-linejoin="round" stroke-width="1"></path><path d="M34.793 44.314V50H21.138v-5.723a11.035 11.035 0 0 1 3.162 -1.725c0.187 1.129 1.627 3.339 2.645 4.791a1.24 1.24 0 0 0 2.035 0c1.018 -1.452 2.434 -3.649 2.645 -4.779a10.53 10.53 0 0 1 3.168 1.75Z" fill="none" stroke="#0f3f6c" stroke-linecap="round" stroke-linejoin="round" stroke-width="1"></path><path d="M24.3 42.552a11.1 11.1 0 0 1 3.663 -0.621 10.042 10.042 0 0 1 2.532 0.31c0.174 0.038 0.348 0.087 0.521 0.137a2.061 2.061 0 0 1 0.472 0.136 0.463 0.463 0 0 1 0.137 0.05" fill="none" stroke="#0f3f6c" stroke-linecap="round" stroke-linejoin="round" stroke-width="1"></path><path d="M31.628 42.552v0.012c-0.211 1.13 -1.627 3.327 -2.645 4.779a1.24 1.24 0 0 1 -2.035 0c-1.018 -1.452 -2.458 -3.662 -2.645 -4.791a11.1 11.1 0 0 1 3.663 -0.621 10.042 10.042 0 0 1 2.532 0.31c0.174 0.038 0.348 0.087 0.521 0.137a2.061 2.061 0 0 1 0.472 0.136Z" fill="none" stroke="#0f3f6c" stroke-linecap="round" stroke-linejoin="round" stroke-width="1"></path><path d="M38.8 50.4a1.21 1.21 0 0 0 -0.9 -0.4H18.034a1.212 1.212 0 0 0 -0.906 0.4 1.227 1.227 0 0 0 -0.335 0.844v9.931a1.246 1.246 0 0 0 1.241 1.242H37.9a1.246 1.246 0 0 0 1.241 -1.242v-9.934a1.227 1.227 0 0 0 -0.341 -0.841Zm-10.834 8.29a1.86 1.86 0 0 1 -1.08 -3.377 1.834 1.834 0 0 1 2.147 0 1.809 1.809 0 0 1 0.795 1.515 1.86 1.86 0 0 1 -1.862 1.862Z" fill="none" stroke="#0f3f6c" stroke-linecap="round" stroke-linejoin="round" stroke-width="1"></path><path d="M38.8 50.4a1.21 1.21 0 0 0 -0.9 -0.4h-3.1v-5.723a11.306 11.306 0 0 1 3.228 3.973c0.074 0.161 0.161 0.335 0.236 0.509A10.67 10.67 0 0 1 38.8 50.4Z" fill="none" stroke="#0f3f6c" stroke-linecap="round" stroke-linejoin="round" stroke-width="1"></path><path d="M20.89 64.9a3.119 3.119 0 0 0 -0.323 0.558 2.846 2.846 0 0 1 -0.05 -0.558Z" fill="none" stroke="#0f3f6c" stroke-linecap="round" stroke-linejoin="round" stroke-width="1"></path><path d="m28.983 67.119 0.174 1.5h-2.88l0.174 -1.5a3.033 3.033 0 0 0 -0.608 -2.222h3.749a3.029 3.029 0 0 0 -0.609 2.222Z" fill="none" stroke="#0f3f6c" stroke-linecap="round" stroke-linejoin="round" stroke-width="1"></path><path d="M35.414 64.9a3.621 3.621 0 0 1 -0.286 1.427 3.158 3.158 0 0 0 -0.583 -1.427Z" fill="none" stroke="#0f3f6c" stroke-linecap="round" stroke-linejoin="round" stroke-width="1"></path><path d="m18.705 79.793 0.037 0 -0.037 0.037 0 -0.037z" fill="none" stroke="#0f3f6c" stroke-linecap="round" stroke-linejoin="round" stroke-width="1"></path><path d="M24.961 79.793v0.062c-0.024 -0.025 -0.037 -0.049 -0.062 -0.062Z" fill="none" stroke="#0f3f6c" stroke-linecap="round" stroke-linejoin="round" stroke-width="1"></path><path d="M24.279 82.276h-4.916a1.241 1.241 0 0 1 -1.118 -1.8 2.86 2.86 0 0 1 0.46 -0.633v-0.013l0.037 -0.037a3.713 3.713 0 0 1 2.768 -1.241h0.621a3.712 3.712 0 0 1 2.769 1.241c0.025 0.013 0.038 0.037 0.062 0.062v0.013a2.979 2.979 0 0 1 0.435 0.608 1.241 1.241 0 0 1 -1.118 1.8Z" fill="none" stroke="#0f3f6c" stroke-linecap="round" stroke-linejoin="round" stroke-width="1"></path><path d="M30.473 79.793h0.062c-0.025 0.013 -0.037 0.037 -0.062 0.062Z" fill="none" stroke="#0f3f6c" stroke-linecap="round" stroke-linejoin="round" stroke-width="1"></path><path d="M36.73 79.793v0.037l-0.038 -0.037Z" fill="none" stroke="#0f3f6c" stroke-linecap="round" stroke-linejoin="round" stroke-width="1"></path><path d="M36.072 82.276h-4.916a1.24 1.24 0 0 1 -1.117 -1.8 2.975 2.975 0 0 1 0.434 -0.608v-0.013c0.025 -0.025 0.037 -0.049 0.062 -0.062a3.715 3.715 0 0 1 2.765 -1.241h0.621a3.712 3.712 0 0 1 2.768 1.241l0.038 0.037v0.013a2.824 2.824 0 0 1 0.459 0.633 1.241 1.241 0 0 1 -1.114 1.8Z" fill="none" stroke="#0f3f6c" stroke-linecap="round" stroke-linejoin="round" stroke-width="1"></path><path d="m26.451 67.119 -0.174 1.5 -0.3 2.482 -1.018 8.69H24.9a3.712 3.712 0 0 0 -2.768 -1.241h-0.622a3.713 3.713 0 0 0 -2.768 1.241H18.7l1.03 -8.69 0.3 -2.482 0.261 -2.222a3.039 3.039 0 0 1 0.273 -0.944 3.119 3.119 0 0 1 0.323 -0.558 3.321 3.321 0 0 1 0.633 -0.621 3.049 3.049 0 0 1 2.209 -0.6 3.025 3.025 0 0 1 2.114 1.226 3.033 3.033 0 0 1 0.608 2.219Z" fill="none" stroke="#0f3f6c" stroke-linecap="round" stroke-linejoin="round" stroke-width="1"></path><path d="M36.73 79.793h-0.038a3.712 3.712 0 0 0 -2.768 -1.241H33.3a3.715 3.715 0 0 0 -2.768 1.241h-0.062L29.455 71.1l-0.3 -2.482 -0.174 -1.5a3.029 3.029 0 0 1 0.609 -2.222 2.912 2.912 0 0 1 0.583 -0.6 3.035 3.035 0 0 1 1.527 -0.616 3.066 3.066 0 0 1 2.259 0.633 2.86 2.86 0 0 1 0.584 0.584 3.158 3.158 0 0 1 0.583 1.427c0 0.025 0.013 0.05 0.013 0.075l0.26 2.222 0.3 2.482Z" fill="none" stroke="#0f3f6c" stroke-linecap="round" stroke-linejoin="round" stroke-width="1"></path><path d="M39.138 62.414v1.241A1.246 1.246 0 0 1 37.9 64.9h-3.355a2.86 2.86 0 0 0 -0.584 -0.584 3.066 3.066 0 0 0 -2.261 -0.636 3.035 3.035 0 0 0 -1.527 0.621 2.912 2.912 0 0 0 -0.583 0.6h-3.747a3.025 3.025 0 0 0 -2.111 -1.217 3.049 3.049 0 0 0 -2.209 0.6 3.321 3.321 0 0 0 -0.633 0.621h-2.856a1.246 1.246 0 0 1 -1.241 -1.242v-1.249Z" fill="none" stroke="#0f3f6c" stroke-linecap="round" stroke-linejoin="round" stroke-width="1"></path><path d="M29.828 56.828a1.863 1.863 0 1 1 -2.942 -1.515 1.834 1.834 0 0 1 2.147 0 1.809 1.809 0 0 1 0.795 1.515Z" fill="none" stroke="#0f3f6c" stroke-linecap="round" stroke-linejoin="round" stroke-width="1"></path><path d="m27.966 53.724 1.242 -1.241" fill="none" stroke="#0f3f6c" stroke-linecap="round" stroke-linejoin="round" stroke-width="1"></path><path d="m66.448 40.069 0 -3.103" fill="none" stroke="#0f3f6c" stroke-linecap="round" stroke-linejoin="round" stroke-width="1"></path><path d="m50.31 38.828 0 -1.862" fill="none" stroke="#0f3f6c" stroke-linecap="round" stroke-linejoin="round" stroke-width="1"></path><path d="M50.211 41.31a8.537 8.537 0 0 1 -2.371 4.817 8.622 8.622 0 0 1 -6.219 2.632h-1.552a2.16 2.16 0 0 1 -1.726 -0.857 2.108 2.108 0 0 1 -0.446 -1.316 2.187 2.187 0 0 1 2.172 -2.172h1.552a4.34 4.34 0 0 0 4.171 -3.128" fill="none" stroke="#0f3f6c" stroke-linecap="round" stroke-linejoin="round" stroke-width="1"></path><path d="M45.966 41.31h4.245a6.566 6.566 0 0 0 0.1 -1.216v-1.266h-4.345a0.614 0.614 0 0 0 -0.621 0.62v1.242a0.615 0.615 0 0 0 0.447 0.6" fill="none" stroke="#0f3f6c" stroke-linecap="round" stroke-linejoin="round" stroke-width="1"></path><path d="M45.966 41.31a0.746 0.746 0 0 1 -0.174 -0.024" fill="none" stroke="#0f3f6c" stroke-linecap="round" stroke-linejoin="round" stroke-width="1"></path><path d="M50.31 40.094v1.216h-0.1a6.653 6.653 0 0 0 0.1 -1.216Z" fill="none" stroke="#0f3f6c" stroke-linecap="round" stroke-linejoin="round" stroke-width="1"></path></svg>