<svg xmlns="http://www.w3.org/2000/svg" fill="none" viewBox="0 0 100 100" id="Work-Desk-Sofa-3-1--Streamline-Ux.svg" height="100" width="100"><desc>Work Desk Sofa 3 1 Streamline Illustration: https://streamlinehq.com</desc><path fill="#e5e7eb" d="M93.536 54.2897C93.5369 47.7133 92.0656 41.22 89.2302 35.2862C86.3948 29.3523 82.2672 24.1283 77.1501 19.9973C72.0328 15.8664 66.0559 12.9332 59.6576 11.413C53.2593 9.8927 46.6017 9.8239 40.1732 11.2115C33.7448 12.5992 27.7085 15.4082 22.5071 19.4325C17.3056 23.4568 13.0709 28.5943 10.1135 34.4683C7.1561 40.3423 5.5509 46.8038 5.4158 53.3789C5.2807 59.9539 6.619 66.476 9.3326 72.4665H89.6098C92.2018 66.7575 93.5406 60.5595 93.536 54.2897Z" stroke-width="1"></path><path stroke="#0f3f6c" stroke-linecap="round" stroke-linejoin="round" d="M6.5081 72.4665H92.4344" stroke-width="1"></path><path stroke="#0f3f6c" stroke-linecap="round" stroke-linejoin="round" d="M1.5508 72.4665H4.3049" stroke-width="1"></path><path stroke="#0f3f6c" stroke-linecap="round" stroke-linejoin="round" d="M94.6376 72.4665H97.3916" stroke-width="1"></path><path fill="#0f3f6c" d="M18.6865 36.2904C20.0396 36.2886 21.3797 36.5539 22.6302 37.0709C23.8807 37.5879 25.0168 38.3465 25.9737 39.3033V56.938H12.6144V38.2788C14.3752 36.9867 16.5024 36.2901 18.6865 36.2904Z" stroke-width="1"></path><path stroke="#0f3f6c" stroke-linecap="round" stroke-linejoin="round" d="M18.6865 36.2904C20.0396 36.2886 21.3797 36.5539 22.6302 37.0709C23.8807 37.5879 25.0168 38.3465 25.9737 39.3033V56.938H12.6144V38.2788C14.3752 36.9867 16.5024 36.2901 18.6865 36.2904Z" stroke-width="1"></path><path fill="#f9faf8" stroke="#0f3f6c" stroke-linecap="round" stroke-linejoin="round" d="M22.1015 36.8776C21.8828 36.8038 21.6929 36.6631 21.5585 36.4755C21.4241 36.288 21.352 36.0629 21.3524 35.8321V32.2331H17.0947V35.5138C17.0945 35.7612 17.011 36.0013 16.8578 36.1957C16.7046 36.3899 16.4903 36.5269 16.2497 36.5845C16.0591 36.6308 15.8697 36.6815 15.6835 36.7377L18.3274 40.4149C18.4383 40.5701 18.5844 40.6968 18.7537 40.7849C18.9229 40.8729 19.1106 40.9198 19.3014 40.9216C19.4921 40.9235 19.6807 40.8802 19.8516 40.7953C20.0225 40.7105 20.1709 40.5866 20.2849 40.4336L22.7625 37.1287C22.5477 37.0373 22.3262 36.9536 22.1015 36.8775Z" stroke-width="1"></path><path fill="#f9faf8" stroke="#0f3f6c" stroke-linecap="round" stroke-linejoin="round" d="M36.5701 50.2567H33.231C32.1019 50.25 31.0211 49.797 30.2246 48.9965C29.4283 48.1958 28.9808 47.1128 28.9799 45.9835H28.9799C28.8329 43.4624 27.7627 41.0835 25.9736 39.3011V50.9507C27.626 53.6938 30.4054 54.5079 33.231 54.5079H36.57C36.8491 54.5079 37.1255 54.4529 37.3833 54.3461C37.6411 54.2393 37.8753 54.0827 38.0726 53.8854C38.2701 53.6881 38.4265 53.4538 38.5333 53.1961C38.6401 52.9383 38.6951 52.6619 38.6951 52.3828C38.6951 52.1038 38.6401 51.8274 38.5333 51.5696C38.4265 51.3119 38.2701 51.0775 38.0726 50.8802C37.8753 50.6829 37.6411 50.5264 37.3833 50.4195C37.1255 50.3128 36.8491 50.2578 36.57 50.2578V50.2567Z" stroke-width="1"></path><path fill="#f9faf8" stroke="#0f3f6c" stroke-linecap="round" stroke-linejoin="round" d="M8.4358 45.3754C8.6062 43.9689 9.0651 42.6126 9.7838 41.3914C10.5023 40.1704 11.4652 39.1108 12.6121 38.2788V45.9902C12.6138 47.1162 13.0624 48.1955 13.8592 48.9911C14.6561 49.7868 15.7361 50.2336 16.8621 50.2336H20.2022C20.7576 50.2463 21.286 50.4757 21.6743 50.873C22.0625 51.2702 22.28 51.8036 22.28 52.3592S22.0625 53.4481 21.6743 53.8454C21.286 54.2426 20.7576 54.4721 20.2022 54.4847H16.8654C15.7294 54.4857 14.6047 54.2582 13.5583 53.8158C12.5119 53.3733 11.5653 52.7249 10.7746 51.9092C9.9321 51.0563 9.2864 50.0297 8.8824 48.9011C8.4783 47.7725 8.326 46.5692 8.4358 45.3755H8.4358Z" stroke-width="1"></path><path fill="#f9faf8" stroke="#0f3f6c" stroke-linecap="round" stroke-linejoin="round" d="M11.9765 35.9103C13.9885 35.9103 15.6196 34.2793 15.6196 32.2673S13.9885 28.6242 11.9765 28.6242S8.3335 30.2553 8.3335 32.2673S9.9645 35.9103 11.9765 35.9103Z" stroke-width="1"></path><path fill="#f9faf8" stroke="#0f3f6c" stroke-linecap="round" stroke-linejoin="round" d="M19.2737 17.6488C17.3357 17.6488 15.4771 18.4186 14.1067 19.789C12.7364 21.1593 11.9666 23.0179 11.9666 24.9558V26.4177C9.8802 26.4177 10.0223 30.0718 12.3313 30.0718H12.3379C12.8572 31.7371 13.9567 33.1608 15.4365 34.0843C16.9164 35.0079 18.6785 35.3699 20.4026 35.1047C22.1266 34.8395 23.6984 33.9645 24.8323 32.639C25.9662 31.3134 26.587 29.6251 26.5818 27.8806V24.9514C26.5806 23.014 25.8101 21.1565 24.4397 19.7871C23.0692 18.4176 21.211 17.6485 19.2737 17.6488H19.2737Z" stroke-width="1"></path><path fill="#0f3f6c" d="M17.0506 29.0307C17.0506 29.1751 17.0077 29.3164 16.9275 29.4366C16.8472 29.5566 16.7332 29.6503 16.5997 29.7055C16.4663 29.7608 16.3194 29.7753 16.1778 29.7471C16.0361 29.7189 15.9059 29.6493 15.8038 29.5472C15.7017 29.4451 15.632 29.315 15.6039 29.1733C15.5757 29.0315 15.5902 28.8847 15.6455 28.7513C15.7008 28.6177 15.7943 28.5037 15.9145 28.4234C16.0346 28.3432 16.1758 28.3004 16.3202 28.3004C16.514 28.3004 16.6997 28.3774 16.8367 28.5143C16.9737 28.6512 17.0506 28.8371 17.0506 29.0307Z" stroke-width="1"></path><path stroke="#0f3f6c" stroke-linecap="round" stroke-linejoin="round" d="M18.8782 30.9321C19.4298 31.2635 20.0612 31.4385 20.7047 31.4385C21.3481 31.4385 21.9796 31.2635 22.5311 30.9321" stroke-width="1"></path><path stroke="#0f3f6c" stroke-linecap="round" stroke-linejoin="round" d="M17.2257 26.6821C17.4195 26.4885 17.6823 26.3797 17.9561 26.3797C18.23 26.3797 18.4927 26.4885 18.6865 26.6821" stroke-width="1"></path><path stroke="#0f3f6c" stroke-linecap="round" stroke-linejoin="round" d="M22.691 26.6821C22.8849 26.4884 23.1478 26.3797 23.4219 26.3797C23.696 26.3797 23.9588 26.4884 24.1528 26.6821" stroke-width="1"></path><path fill="#f9faf8" d="M19.1723 15.3068C18.7743 15.31 18.377 15.3423 17.9837 15.4037C16.0866 15.689 14.3545 16.6446 13.1014 18.0974C11.8484 19.5501 11.1574 21.4037 11.1536 23.3221V26.8925S16.8622 24.8589 16.8622 20.9228C20.5165 22.0345 23.9929 23.6633 27.1855 25.76V23.3221C27.1855 21.1967 26.3413 19.1584 24.8387 17.6552C23.336 16.152 21.2978 15.3073 19.1723 15.3068Z" stroke-width="1"></path><path stroke="#0f3f6c" stroke-linecap="round" stroke-linejoin="round" d="M19.1723 15.3068C18.7743 15.31 18.377 15.3423 17.9837 15.4037C16.0866 15.689 14.3545 16.6446 13.1014 18.0974C11.8484 19.5501 11.1574 21.4037 11.1536 23.3221V26.8925S16.8622 24.8589 16.8622 20.9228C20.5165 22.0345 23.9929 23.6633 27.1855 25.76V23.3221C27.1855 21.1967 26.3413 19.1584 24.8387 17.6552C23.336 16.152 21.2978 15.3073 19.1723 15.3068H19.1723Z" stroke-width="1"></path><path fill="#0f3f6c" d="M31.4091 83.0497C48.1786 83.0497 61.773 82.234 61.773 81.2276C61.773 80.2213 48.1786 79.4055 31.4091 79.4055C14.6396 79.4055 1.0452 80.2213 1.0452 81.2276C1.0452 82.234 14.6396 83.0497 31.4091 83.0497Z" stroke-width="1"></path><path stroke="#0f3f6c" stroke-linecap="round" stroke-linejoin="round" d="M36.8743 54.5079H49.0197" stroke-width="1"></path><path fill="#f9faf8" d="M54.4858 31.4323H31.4091C30.0676 31.4323 28.98 32.5198 28.98 33.8613V48.4357C28.98 49.7773 30.0676 50.8648 31.4091 50.8648H54.4858C55.8273 50.8648 56.9149 49.7773 56.9149 48.4357V33.8613C56.9149 32.5198 55.8273 31.4323 54.4858 31.4323Z" stroke-width="1"></path><path stroke="#0f3f6c" stroke-linecap="round" stroke-linejoin="round" d="M54.4858 31.4323H31.4091C30.0676 31.4323 28.98 32.5198 28.98 33.8613V48.4357C28.98 49.7773 30.0676 50.8648 31.4091 50.8648H54.4858C55.8273 50.8648 56.9149 49.7773 56.9149 48.4357V33.8613C56.9149 32.5198 55.8273 31.4323 54.4858 31.4323Z" stroke-width="1"></path><path stroke="#0f3f6c" stroke-linecap="round" stroke-linejoin="round" d="M32.6232 33.8613H53.2708" stroke-width="1"></path><path fill="#f9faf8" stroke="#0f3f6c" stroke-linecap="round" stroke-linejoin="round" d="M47.1975 54.5079H38.6963L39.7219 42.1609C39.7713 41.5527 40.0482 40.9855 40.4976 40.5726C40.9468 40.1597 41.5353 39.9315 42.1455 39.9335H43.7483C44.3585 39.9315 44.947 40.1597 45.3962 40.5726C45.8456 40.9855 46.1225 41.5527 46.1719 42.1609L47.1975 54.5079Z" stroke-width="1"></path><path stroke="#0f3f6c" stroke-linecap="round" stroke-linejoin="round" d="M32.6232 46.0067V47.2207" stroke-width="1"></path><path stroke="#0f3f6c" stroke-linecap="round" stroke-linejoin="round" d="M35.0521 46.0067V47.2207" stroke-width="1"></path><path stroke="#0f3f6c" stroke-linecap="round" stroke-linejoin="round" d="M37.4813 46.0067V47.2207" stroke-width="1"></path><path fill="#f9faf8" d="M58.7359 56.9369H4.0824V77.5846C4.0824 77.9033 4.1453 78.2189 4.2675 78.5132C4.3896 78.8077 4.5686 79.0751 4.7942 79.3002C5.0199 79.5253 5.2877 79.7038 5.5824 79.8252C5.8771 79.9467 6.1928 80.0088 6.5115 80.0081H56.3047C56.6229 80.0081 56.9381 79.9455 57.2321 79.8236C57.5262 79.7019 57.7933 79.5233 58.0184 79.2983C58.2434 79.0732 58.422 78.8061 58.5437 78.512C58.6656 78.218 58.7282 77.9028 58.7282 77.5846L58.736 56.9369Z" stroke-width="1"></path><path stroke="#0f3f6c" stroke-linecap="round" stroke-linejoin="round" d="M58.7359 56.9369H4.0824V77.5846C4.0824 77.9033 4.1453 78.2189 4.2675 78.5132C4.3896 78.8077 4.5686 79.0751 4.7942 79.3002C5.0199 79.5253 5.2877 79.7038 5.5824 79.8252C5.8771 79.9467 6.1928 80.0088 6.5115 80.0081H56.3047C56.6229 80.0081 56.9381 79.9455 57.2321 79.8236C57.5262 79.7019 57.7933 79.5233 58.0184 79.2983C58.2434 79.0732 58.422 78.8061 58.5437 78.512C58.6656 78.218 58.7282 77.9028 58.7282 77.5846L58.736 56.9369Z" stroke-width="1"></path><path fill="#f9faf8" d="M55.0928 56.9369H19.8707V80.0125H55.0928V56.9369Z" stroke-width="1"></path><path stroke="#0f3f6c" stroke-linecap="round" stroke-linejoin="round" d="M55.0928 56.9369H19.8707V80.0125H55.0928V56.9369Z" stroke-width="1"></path><path fill="#0f3f6c" d="M47.8057 60.5811H27.158C25.146 60.5811 23.515 62.2121 23.515 64.2241V72.7264C23.515 74.7384 25.1461 76.3695 27.158 76.3695H47.8057C49.8177 76.3695 51.4487 74.7384 51.4487 72.7264V64.2241C51.4487 62.2121 49.8177 60.5811 47.8057 60.5811Z" stroke-width="1"></path><path stroke="#0f3f6c" stroke-linecap="round" stroke-linejoin="round" d="M47.8057 60.5811H27.158C25.146 60.5811 23.515 62.2121 23.515 64.2241V72.7264C23.515 74.7384 25.1461 76.3695 27.158 76.3695H47.8057C49.8177 76.3695 51.4487 74.7384 51.4487 72.7264V64.2241C51.4487 62.2121 49.8177 60.5811 47.8057 60.5811Z" stroke-width="1"></path><path fill="#0f3f6c" stroke="#0f3f6c" stroke-linecap="round" stroke-linejoin="round" d="M58.7359 56.9369C59.0581 56.9369 59.367 56.8089 59.5947 56.5812C59.8225 56.3534 59.9505 56.0445 59.9505 55.7224C59.9505 55.4003 59.8225 55.0914 59.5947 54.8636C59.367 54.6358 59.0581 54.5079 58.7359 54.5079H4.0824C3.7603 54.5079 3.4514 54.6358 3.2236 54.8636C2.9958 55.0914 2.8679 55.4003 2.8679 55.7224C2.8679 56.0445 2.9958 56.3534 3.2236 56.5812C3.4514 56.8089 3.7603 56.9369 4.0824 56.9369H58.7359Z" stroke-width="1"></path><path fill="#0f3f6c" d="M74.1574 88.6228C87.2376 88.6228 97.8411 87.807 97.8411 86.8007C97.8411 85.7944 87.2376 84.9786 74.1574 84.9786C61.0773 84.9786 50.4737 85.7944 50.4737 86.8007C50.4737 87.807 61.0773 88.6228 74.1574 88.6228Z" stroke-width="1"></path><path fill="#f9faf8" d="M98.4481 74.6543H69.2993V55.2228C69.2993 54.58 69.5546 53.9636 70.0091 53.5091C70.4637 53.0546 71.08 52.7993 71.7228 52.7993H96.0146C96.6574 52.7993 97.2739 53.0546 97.7284 53.5091C98.1828 53.9636 98.4382 54.58 98.4382 55.2228L98.4481 74.6543Z" stroke-width="1"></path><path stroke="#0f3f6c" stroke-linecap="round" stroke-linejoin="round" d="M98.4481 74.6543H69.2993V55.2228C69.2993 54.58 69.5546 53.9636 70.0091 53.5091C70.4637 53.0546 71.08 52.7993 71.7228 52.7993H96.0146C96.6574 52.7993 97.2739 53.0546 97.7284 53.5091C98.1828 53.9636 98.4382 54.58 98.4382 55.2228L98.4481 74.6543Z" stroke-width="1"></path><path fill="#0f3f6c" stroke="#0f3f6c" stroke-linecap="round" stroke-linejoin="round" d="M73.0558 85.5856H70.4009C70.1087 85.5856 69.8286 85.4695 69.6219 85.263C69.4154 85.0564 69.2993 84.7762 69.2993 84.484V83.1621H74.1574V84.484C74.1574 84.7762 74.0414 85.0564 73.8348 85.263C73.6282 85.4695 73.3479 85.5856 73.0558 85.5856Z" stroke-width="1"></path><path fill="#0f3f6c" stroke="#0f3f6c" stroke-linecap="round" stroke-linejoin="round" d="M97.3465 85.5856H94.6927C94.4005 85.5856 94.1204 85.4695 93.9137 85.263C93.7072 85.0564 93.5911 84.7762 93.5911 84.484V83.1621H98.4492V84.484C98.4492 84.6288 98.4207 84.7721 98.3653 84.9058C98.3099 85.0396 98.2287 85.1611 98.1262 85.2634C98.0238 85.3657 97.9023 85.4468 97.7684 85.5021C97.6347 85.5574 97.4913 85.5858 97.3465 85.5856Z" stroke-width="1"></path><path fill="#0f3f6c" stroke="#0f3f6c" stroke-linecap="round" stroke-linejoin="round" d="M83.9862 85.5856H81.3313C81.0391 85.5856 80.759 85.4695 80.5523 85.263C80.3458 85.0564 80.2296 84.7762 80.2296 84.484V83.1621H85.0878V84.484C85.0878 84.7762 84.9718 85.0564 84.7652 85.263C84.5586 85.4695 84.2784 85.5856 83.9862 85.5856Z" stroke-width="1"></path><path fill="#f9faf8" d="M98.4481 83.1566H69.2993V74.6554C69.2993 74.3371 69.3619 74.0219 69.4838 73.7279C69.6055 73.4339 69.7841 73.1668 70.0091 72.9417C70.2342 72.7166 70.5013 72.5381 70.7954 72.4163C71.0894 72.2945 71.4046 72.2318 71.7228 72.2318H96.0146C96.3329 72.2318 96.648 72.2945 96.9421 72.4163C97.2361 72.5381 97.5033 72.7166 97.7284 72.9417C97.9534 73.1668 98.1319 73.4339 98.2538 73.7279C98.3755 74.0219 98.4382 74.3371 98.4382 74.6554L98.4481 83.1566Z" stroke-width="1"></path><path stroke="#0f3f6c" stroke-linecap="round" stroke-linejoin="round" d="M98.4481 83.1566H69.2993V74.6554C69.2993 74.3371 69.3619 74.0219 69.4838 73.7279C69.6055 73.4339 69.7841 73.1668 70.0091 72.9417C70.2342 72.7166 70.5013 72.5381 70.7954 72.4163C71.0894 72.2945 71.4046 72.2318 71.7228 72.2318H96.0146C96.3329 72.2318 96.648 72.2945 96.9421 72.4163C97.2361 72.5381 97.5033 72.7166 97.7284 72.9417C97.9534 73.1668 98.1319 73.4339 98.2538 73.7279C98.3755 74.0219 98.4382 74.3371 98.4382 74.6554L98.4481 83.1566Z" stroke-width="1"></path><path stroke="#0f3f6c" stroke-linecap="round" stroke-linejoin="round" d="M80.2295 72.2252V83.1555" stroke-width="1"></path><path fill="#f9faf8" d="M64.4412 83.1555H69.2994V63.7229H65.6552C65.012 63.7229 64.395 63.978 63.9396 64.4325C63.4842 64.8868 63.2276 65.5032 63.2262 66.1465V81.9415C63.2258 82.1011 63.2571 82.2592 63.318 82.4067C63.3791 82.5542 63.4685 82.6882 63.5814 82.801C63.6944 82.9138 63.8284 83.0031 63.9759 83.064C64.1235 83.1248 64.2816 83.1559 64.4412 83.1555Z" stroke-width="1"></path><path stroke="#0f3f6c" stroke-linecap="round" stroke-linejoin="round" d="M64.4412 83.1555H69.2994V63.7229H65.6552C65.012 63.7229 64.395 63.978 63.9396 64.4325C63.4842 64.8868 63.2276 65.5032 63.2262 66.1465V81.9415C63.2258 82.1011 63.2571 82.2592 63.318 82.4067C63.3791 82.5542 63.4685 82.6882 63.5814 82.801C63.6944 82.9138 63.8284 83.0031 63.9759 83.064C64.1235 83.1248 64.2816 83.1559 64.4412 83.1555Z" stroke-width="1"></path><path fill="#f9faf8" d="M98.4482 72.2252H91.161V55.2217C91.16 54.9022 91.2221 54.5858 91.3439 54.2904C91.4657 53.995 91.6446 53.7266 91.8704 53.5007C92.0963 53.2747 92.3646 53.0957 92.66 52.9738C92.9552 52.8519 93.2717 52.7896 93.5912 52.7904H96.0147C96.6575 52.7904 97.274 53.0458 97.7285 53.5003C98.1829 53.9549 98.4383 54.5712 98.4383 55.214L98.4482 72.2252Z" stroke-width="1"></path><path stroke="#0f3f6c" stroke-linecap="round" stroke-linejoin="round" d="M98.4482 72.2252H91.161V55.2217C91.16 54.9022 91.2221 54.5858 91.3439 54.2904C91.4657 53.995 91.6446 53.7266 91.8704 53.5007C92.0963 53.2747 92.3646 53.0957 92.66 52.9738C92.9552 52.8519 93.2717 52.7896 93.5912 52.7904H96.0147C96.6575 52.7904 97.274 53.0458 97.7285 53.5003C98.1829 53.9549 98.4383 54.5712 98.4383 55.214L98.4482 72.2252Z" stroke-width="1"></path><path fill="#f9faf8" d="M97.233 83.1555H83.8737C83.5523 83.1555 83.2441 83.0278 83.0168 82.8005C82.7896 82.5733 82.6619 82.2651 82.6619 81.9437V66.152C82.6633 65.5096 82.9192 64.894 83.3734 64.4398C83.8276 63.9856 84.4432 63.7298 85.0855 63.7284H96.0146C96.657 63.7298 97.2726 63.9856 97.7268 64.4398C98.181 64.894 98.4367 65.5096 98.4382 66.152V81.9415C98.4388 82.2622 98.3123 82.5699 98.0864 82.7974C97.8605 83.025 97.5537 83.1537 97.233 83.1555Z" stroke-width="1"></path><path stroke="#0f3f6c" stroke-linecap="round" stroke-linejoin="round" d="M97.233 83.1555H83.8737C83.5523 83.1555 83.2441 83.0278 83.0168 82.8005C82.7896 82.5733 82.6619 82.2651 82.6619 81.9437V66.152C82.6633 65.5096 82.9192 64.894 83.3734 64.4398C83.8276 63.9856 84.4432 63.7298 85.0855 63.7284H96.0146C96.657 63.7298 97.2726 63.9856 97.7268 64.4398C98.181 64.894 98.4367 65.5096 98.4382 66.152V81.9415C98.4388 82.2622 98.3123 82.5699 98.0864 82.7974C97.8605 83.025 97.5537 83.1537 97.233 83.1555Z" stroke-width="1"></path><path fill="#f9faf8" d="M83.8737 83.1555H87.5167C87.8381 83.1555 88.1463 83.0278 88.3736 82.8005C88.6008 82.5733 88.7285 82.2651 88.7285 81.9437V66.152C88.7271 65.5096 88.4713 64.894 88.0171 64.4398C87.5629 63.9856 86.9473 63.7298 86.3049 63.7284H85.0932C84.4508 63.7298 83.8352 63.9856 83.381 64.4398C82.9268 64.894 82.671 65.5096 82.6696 66.152V81.9415C82.669 82.2619 82.7954 82.5695 83.021 82.7971C83.2466 83.0246 83.5532 83.1535 83.8737 83.1555Z" stroke-width="1"></path><path stroke="#0f3f6c" stroke-linecap="round" stroke-linejoin="round" d="M83.8737 83.1555H87.5167C87.8381 83.1555 88.1463 83.0278 88.3736 82.8005C88.6008 82.5733 88.7285 82.2651 88.7285 81.9437V66.152C88.7271 65.5096 88.4713 64.894 88.0171 64.4398C87.5629 63.9856 86.9473 63.7298 86.3049 63.7284H85.0932C84.4508 63.7298 83.8352 63.9856 83.381 64.4398C82.9268 64.894 82.671 65.5096 82.6696 66.152V81.9415C82.669 82.2619 82.7954 82.5695 83.021 82.7971C83.2466 83.0246 83.5532 83.1535 83.8737 83.1555Z" stroke-width="1"></path><path fill="#0f3f6c" stroke="#0f3f6c" stroke-linecap="round" stroke-linejoin="round" d="M60.19 81.9415H65.6551L67.1059 74.2059C67.209 73.6484 67.5044 73.1446 67.9405 72.7823C68.3767 72.42 68.9261 72.2221 69.4931 72.223H74.7644V67.3649H65.7058C64.8422 67.3651 64.0068 67.672 63.3484 68.2309C62.6901 68.7898 62.2517 69.5642 62.1112 70.4163L60.19 81.9415Z" stroke-width="1"></path><path fill="#f9faf8" d="M86.3027 57.6508C86.3027 54.5906 85.0871 51.6558 82.9232 49.492C80.7593 47.3281 77.8245 46.1124 74.7644 46.1124C71.7042 46.1124 68.7694 47.3281 66.6055 49.492C64.4417 51.6558 63.226 54.5906 63.226 57.6508V59.4729H66.2632V67.3671H82.0494V59.4729H86.2961L86.3027 57.6508Z" stroke-width="1"></path><path stroke="#0f3f6c" stroke-linecap="round" stroke-linejoin="round" d="M86.3027 57.6508C86.3027 54.5906 85.0871 51.6558 82.9232 49.492C80.7593 47.3281 77.8245 46.1124 74.7644 46.1124C71.7042 46.1124 68.7694 47.3281 66.6055 49.492C64.4417 51.6558 63.226 54.5906 63.226 57.6508V59.4729H66.2632V67.3671H82.0494V59.4729H86.2961L86.3027 57.6508Z" stroke-width="1"></path><path stroke="#0f3f6c" stroke-linecap="round" stroke-linejoin="round" d="M82.0516 59.4729V55.8287" stroke-width="1"></path><path stroke="#0f3f6c" stroke-linecap="round" stroke-linejoin="round" d="M66.2632 59.4729V55.8287" stroke-width="1"></path><path fill="#f9faf8" stroke="#0f3f6c" stroke-linecap="round" stroke-linejoin="round" d="M57.1539 85.5845C57.1542 84.6184 57.5382 83.6919 58.2213 83.0088C58.9044 82.3257 59.8309 81.9418 60.797 81.9415H65.6551V85.5845H57.1539Z" stroke-width="1"></path><path fill="#f9faf8" stroke="#0f3f6c" stroke-linecap="round" stroke-linejoin="round" d="M64.4411 85.5845C64.4415 84.6184 64.8254 83.6919 65.5085 83.0088C66.1916 82.3257 67.1181 81.9418 68.0842 81.9415H72.9423V84.365C72.9423 84.6864 72.8146 84.9946 72.5874 85.2219C72.3601 85.4491 72.0519 85.5768 71.7305 85.5768L64.4411 85.5845Z" stroke-width="1"></path><path fill="#0f3f6c" stroke="#0f3f6c" stroke-linecap="round" stroke-linejoin="round" d="M67.4827 81.9415H72.9478L74.3987 74.2059C74.5018 73.6484 74.797 73.1445 75.2332 72.7823C75.6694 72.42 76.2189 72.222 76.7859 72.223H79.628C80.2708 72.223 80.8872 71.9676 81.3417 71.5131C81.7963 71.0586 82.0516 70.4422 82.0516 69.7994V67.3759H72.9908C72.1292 67.3762 71.2956 67.6818 70.6379 68.2384C69.9803 68.795 69.5411 69.5667 69.3984 70.4163L67.4827 81.9415Z" stroke-width="1"></path><path fill="#f9faf8" stroke="#0f3f6c" stroke-linecap="round" stroke-linejoin="round" d="M75.0684 60.6868H81.1428C81.3843 60.6865 81.6159 60.5905 81.7867 60.4197C81.9574 60.249 82.0536 60.0174 82.0538 59.7758V59.4729H86.305V59.7758C86.3035 61.1445 85.7592 62.4566 84.7914 63.4244C83.8236 64.3922 82.5114 64.9366 81.1428 64.938H75.0684C74.7852 64.9445 74.5036 64.8943 74.2401 64.7903C73.9765 64.6864 73.7365 64.5308 73.5339 64.3329C73.3313 64.1348 73.1704 63.8983 73.0604 63.6372C72.9506 63.3761 72.894 63.0957 72.894 62.8124C72.894 62.5292 72.9506 62.2487 73.0604 61.9876C73.1703 61.7266 73.3313 61.49 73.5339 61.292C73.7365 61.094 73.9765 60.9385 74.2401 60.8346C74.5036 60.7306 74.7852 60.6805 75.0684 60.6868H75.0684Z" stroke-width="1"></path><path fill="#f9faf8" stroke="#0f3f6c" stroke-linecap="round" stroke-linejoin="round" d="M77.9536 46.5685C77.7218 46.5037 77.5176 46.3649 77.3721 46.1731C77.2267 45.9813 77.1481 45.7472 77.1483 45.5065V41.7974H72.3904V45.5065C72.3904 45.7457 72.3125 45.9782 72.1686 46.1693C72.0248 46.3602 71.8227 46.4992 71.5928 46.5652C71.0659 46.7164 70.5505 46.9053 70.0506 47.1303C70.2829 48.0902 70.8437 48.9384 71.6357 49.5283C72.4277 50.1181 73.4011 50.4125 74.3873 50.3601C75.3734 50.3078 76.3102 49.9122 77.0354 49.2419C77.7606 48.5716 78.2284 47.6687 78.3579 46.6897C78.2191 46.6456 78.0869 46.6048 77.9536 46.5685Z" stroke-width="1"></path><path fill="#f9faf8" stroke="#0f3f6c" stroke-linecap="round" stroke-linejoin="round" d="M74.1573 28.004C76.0901 28.004 77.9435 28.7717 79.3102 30.1384C80.6768 31.505 81.4446 33.3586 81.4446 35.2912V36.2662C81.7991 36.332 82.1176 36.5245 82.3409 36.8076C82.5641 37.0908 82.6769 37.4455 82.6582 37.8056C82.6394 38.1657 82.4905 38.5068 82.2391 38.7652C81.9876 39.0237 81.6508 39.182 81.2915 39.2108C80.9237 40.9765 79.9141 42.543 78.4582 43.6075C77.0022 44.672 75.2033 45.1587 73.4093 44.9735C71.6152 44.7883 69.9536 43.9445 68.7457 42.6051C67.5379 41.2658 66.8695 39.5261 66.8701 37.7225V35.299C66.8691 34.3413 67.0569 33.3929 67.4227 32.5079C67.7884 31.6229 68.325 30.8187 69.0018 30.1412C69.6785 29.4637 70.4823 28.9262 71.3669 28.5595C72.2515 28.1927 73.1998 28.004 74.1573 28.004H74.1573Z" stroke-width="1"></path><path fill="#0f3f6c" d="M75.0683 37.1166C75.5715 37.1166 75.9794 36.7088 75.9794 36.2056C75.9794 35.7025 75.5715 35.2945 75.0683 35.2945C74.5652 35.2945 74.1573 35.7025 74.1573 36.2056C74.1573 36.7088 74.5652 37.1166 75.0683 37.1166Z" stroke-width="1"></path><path fill="#0f3f6c" d="M70.2103 37.1166C70.7135 37.1166 71.1213 36.7088 71.1213 36.2056C71.1213 35.7025 70.7135 35.2945 70.2103 35.2945C69.7072 35.2945 69.2993 35.7025 69.2993 36.2056C69.2993 36.7088 69.7072 37.1166 70.2103 37.1166Z" stroke-width="1"></path><path fill="#0f3f6c" d="M77.4975 39.5457C78.0007 39.5457 78.4085 39.1378 78.4085 38.6346C78.4085 38.1315 78.0007 37.7236 77.4975 37.7236C76.9944 37.7236 76.5865 38.1315 76.5865 38.6346C76.5865 39.1378 76.9944 39.5457 77.4975 39.5457Z" stroke-width="1"></path><path stroke="#0f3f6c" stroke-linecap="round" stroke-linejoin="round" d="M74.7644 40.8158C74.2248 41.1752 73.5911 41.3669 72.9429 41.3669C72.2946 41.3669 71.6608 41.1752 71.1213 40.8158" stroke-width="1"></path><path fill="#f9faf8" stroke="#0f3f6c" stroke-linecap="round" stroke-linejoin="round" d="M66.2632 33.4725C66.2632 32.4358 66.4674 31.4092 66.8641 30.4515C67.2609 29.4937 67.8424 28.6235 68.5754 27.8904C69.3084 27.1574 70.1787 26.5759 71.1364 26.1792C72.0943 25.7825 73.1208 25.5783 74.1574 25.5783C75.1941 25.5783 76.2206 25.7825 77.1785 26.1792C78.1362 26.5759 79.0064 27.1574 79.7395 27.8904C80.4725 28.6235 81.054 29.4937 81.4508 30.4515C81.8474 31.4092 82.0516 32.4358 82.0516 33.4725V35.896C81.1091 35.6598 80.2345 35.2077 79.4967 34.5755C78.759 33.9433 78.1783 33.1481 77.8004 32.253C74.3986 34.5487 69.9062 34.0806 66.2632 33.4725Z" stroke-width="1"></path><path stroke="#0f3f6c" stroke-linecap="round" stroke-linejoin="round" d="M66.2632 33.4725C66.2632 32.4358 66.4674 31.4092 66.8641 30.4515C67.2609 29.4937 67.8424 28.6235 68.5754 27.8904C69.3084 27.1574 70.1787 26.5759 71.1364 26.1792C72.0943 25.7825 73.1208 25.5783 74.1574 25.5783C75.1941 25.5783 76.2206 25.7825 77.1785 26.1792C78.1362 26.5759 79.0064 27.1574 79.7395 27.8904C80.4725 28.6235 81.054 29.4937 81.4508 30.4515C81.8474 31.4092 82.0516 32.4358 82.0516 33.4725V35.896C81.1091 35.6598 80.2345 35.2077 79.4967 34.5755C78.759 33.9433 78.1783 33.1481 77.8004 32.253C74.3986 34.5487 69.9062 34.0806 66.2632 33.4725Z" stroke-width="1"></path><path stroke="#0f3f6c" stroke-linecap="round" stroke-linejoin="round" d="M79.0155 31.0434C78.7066 31.5323 78.2927 31.9463 77.8038 32.2552" stroke-width="1"></path><path fill="#f9faf8" d="M53.5098 64.938C53.5098 65.2594 53.6374 65.5676 53.8647 65.7948C54.092 66.0221 54.4002 66.1498 54.7215 66.1498H71.118L69.296 55.2195C69.296 54.8982 69.1683 54.5899 68.941 54.3627C68.7138 54.1354 68.4056 54.0077 68.0842 54.0077H52.9028C52.5814 54.0077 52.2732 54.1354 52.0459 54.3627C51.8187 54.5899 51.691 54.8982 51.691 55.2195L53.5098 64.938Z" stroke-width="1"></path><path fill="#f9faf8" stroke="#0f3f6c" stroke-linecap="round" stroke-linejoin="round" d="M54.7248 68.581H69.9063C70.2277 68.581 70.5358 68.4534 70.7631 68.2261C70.9904 67.9988 71.118 67.6906 71.118 67.3693V66.1575H53.5098V67.3693C53.5098 67.5287 53.5413 67.6865 53.6023 67.8338C53.6634 67.981 53.753 68.1147 53.8659 68.2273C53.9787 68.3399 54.1127 68.429 54.2601 68.4897C54.4075 68.5504 54.5654 68.5815 54.7248 68.581H54.7248Z" stroke-width="1"></path><path stroke="#0f3f6c" stroke-linecap="round" stroke-linejoin="round" d="M53.5098 64.938C53.5098 65.2594 53.6374 65.5676 53.8647 65.7948C54.092 66.0221 54.4002 66.1498 54.7215 66.1498H71.118L69.296 55.2195C69.296 54.8982 69.1683 54.5899 68.941 54.3627C68.7138 54.1354 68.4056 54.0077 68.0842 54.0077H52.9028C52.5814 54.0077 52.2732 54.1354 52.0459 54.3627C51.8187 54.5899 51.691 54.8982 51.691 55.2195L53.5098 64.938Z" stroke-width="1"></path><path fill="#0f3f6c" stroke="#0f3f6c" stroke-linecap="round" stroke-linejoin="round" d="M61.4051 62.5089C62.4113 62.5089 63.2271 61.6932 63.2271 60.6868C63.2271 59.6805 62.4113 58.8648 61.4051 58.8648C60.3987 58.8648 59.583 59.6805 59.583 60.6868C59.583 61.6932 60.3987 62.5089 61.4051 62.5089Z" stroke-width="1"></path><path stroke="#0f3f6c" stroke-linecap="round" stroke-linejoin="round" d="M60.797 57.0438L61.4051 57.6508V58.8648" stroke-width="1"></path><path fill="#f9faf8" stroke="#0f3f6c" stroke-linecap="round" stroke-linejoin="round" d="M78.912 66.152C79.0091 66.1522 79.1048 66.1755 79.191 66.2203C79.2772 66.2649 79.3515 66.3297 79.4076 66.4089C79.4637 66.4882 79.4999 66.5797 79.5134 66.6759C79.5268 66.7721 79.5171 66.8701 79.4848 66.9617C79.3172 67.4354 79.0068 67.8455 78.5965 68.1354C78.1861 68.4255 77.696 68.5811 77.1935 68.581H71.118V66.152H78.912Z" stroke-width="1"></path><path fill="#f9faf8" d="M41.3644 87.7118C41.3644 88.1144 41.2045 88.5005 40.9198 88.7852C40.6351 89.0698 40.249 89.2298 39.8464 89.2298C39.4437 89.2298 39.0576 89.0698 38.773 88.7852C38.4883 88.5005 38.3284 88.1144 38.3284 87.7118V73.4392H41.3644V87.7118Z" stroke-width="1"></path><path stroke="#0f3f6c" stroke-linecap="round" stroke-linejoin="round" d="M41.3644 87.7118C41.3644 88.1144 41.2045 88.5005 40.9198 88.7852C40.6351 89.0698 40.249 89.2298 39.8464 89.2298C39.4437 89.2298 39.0576 89.0698 38.773 88.7852C38.4883 88.5005 38.3284 88.1144 38.3284 87.7118V73.4392H41.3644V87.7118Z" stroke-width="1"></path><path fill="#f9faf8" d="M51.0807 73.4392H41.3644V77.0822H51.0807V73.4392Z" stroke-width="1"></path><path stroke="#0f3f6c" stroke-linecap="round" stroke-linejoin="round" d="M51.0807 73.4392H41.3644V77.0822H51.0807V73.4392Z" stroke-width="1"></path><path fill="#0f3f6c" stroke="#0f3f6c" stroke-linecap="round" stroke-linejoin="round" d="M57.1539 72.2252C57.1539 72.5465 57.0262 72.8548 56.799 73.082C56.5717 73.3093 56.2635 73.437 55.9421 73.437H36.5063C36.1848 73.437 35.8767 73.3093 35.6494 73.082C35.4222 72.8548 35.2945 72.5465 35.2945 72.2252C35.2945 71.9039 35.4222 71.5956 35.6494 71.3684C35.8767 71.1411 36.1848 71.0134 36.5063 71.0134H55.9388C56.0982 71.013 56.2561 71.044 56.4036 71.1047C56.551 71.1654 56.6849 71.2546 56.7978 71.3671C56.9107 71.4797 57.0002 71.6135 57.0614 71.7606C57.1224 71.9079 57.1539 72.0658 57.1539 72.2252H57.1539Z" stroke-width="1"></path><path fill="#0f3f6c" stroke="#0f3f6c" stroke-linecap="round" stroke-linejoin="round" d="M41.3644 87.7118C41.3644 88.1144 41.2045 88.5005 40.9198 88.7852C40.6351 89.0698 40.249 89.2298 39.8464 89.2298C39.4437 89.2298 39.0576 89.0698 38.773 88.7852C38.4883 88.5005 38.3284 88.1144 38.3284 87.7118V86.1926H41.3644V87.7118Z" stroke-width="1"></path><path fill="#f9faf8" d="M54.1177 87.7118C54.1072 88.1075 53.9425 88.4833 53.6588 88.7594C53.3753 89.0355 52.995 89.19 52.5992 89.19C52.2034 89.19 51.8232 89.0355 51.5396 88.7594C51.256 88.4833 51.0913 88.1075 51.0806 87.7118V73.4392H54.1177V87.7118Z" stroke-width="1"></path><path stroke="#0f3f6c" stroke-linecap="round" stroke-linejoin="round" d="M54.1177 87.7118C54.1072 88.1075 53.9425 88.4833 53.6588 88.7594C53.3753 89.0355 52.995 89.19 52.5992 89.19C52.2034 89.19 51.8232 89.0355 51.5396 88.7594C51.256 88.4833 51.0913 88.1075 51.0806 87.7118V73.4392H54.1177V87.7118Z" stroke-width="1"></path><path fill="#0f3f6c" stroke="#0f3f6c" stroke-linecap="round" stroke-linejoin="round" d="M54.1177 87.7118C54.1072 88.1075 53.9425 88.4833 53.6588 88.7594C53.3753 89.0355 52.995 89.19 52.5992 89.19C52.2034 89.19 51.8232 89.0355 51.5396 88.7594C51.256 88.4833 51.0913 88.1075 51.0806 87.7118V86.1926H54.1177V87.7118Z" stroke-width="1"></path><path fill="#f9faf8" d="M41.9725 66.152C41.9717 66.4712 42.0341 66.7874 42.1559 67.0824C42.2778 67.3774 42.4567 67.6456 42.6824 67.8713C42.908 68.0969 43.1761 68.2758 43.4711 68.3976C43.7662 68.5195 44.0823 68.5818 44.4016 68.581H48.0446C48.3633 68.581 48.6789 68.5181 48.9734 68.3961C49.2677 68.2739 49.5351 68.0949 49.7603 67.8693C49.9855 67.6437 50.1638 67.3758 50.2853 67.0812C50.4067 66.7865 50.469 66.4707 50.4682 66.152V62.5089C50.4682 62.1876 50.3405 61.8793 50.1132 61.6521C49.886 61.4248 49.5777 61.2971 49.2564 61.2971H43.1865C42.8651 61.2971 42.5569 61.4248 42.3296 61.6521C42.1024 61.8793 41.9747 62.1876 41.9747 62.5089L41.9725 66.152Z" stroke-width="1"></path><path stroke="#0f3f6c" stroke-linecap="round" stroke-linejoin="round" d="M41.9725 66.152C41.9717 66.4712 42.0341 66.7874 42.1559 67.0824C42.2778 67.3774 42.4567 67.6456 42.6824 67.8713C42.908 68.0969 43.1761 68.2758 43.4711 68.3976C43.7662 68.5195 44.0823 68.5818 44.4016 68.581H48.0446C48.3633 68.581 48.6789 68.5181 48.9734 68.3961C49.2677 68.2739 49.5351 68.0949 49.7603 67.8693C49.9855 67.6437 50.1638 67.3758 50.2853 67.0812C50.4067 66.7865 50.469 66.4707 50.4682 66.152V62.5089C50.4682 62.1876 50.3405 61.8793 50.1132 61.6521C49.886 61.4248 49.5777 61.2971 49.2564 61.2971H43.1865C42.8651 61.2971 42.5569 61.4248 42.3296 61.6521C42.1024 61.8793 41.9747 62.1876 41.9747 62.5089L41.9725 66.152Z" stroke-width="1"></path><path stroke="#0f3f6c" stroke-linecap="round" stroke-linejoin="round" d="M41.9725 62.5089H41.0438C40.8468 62.5089 40.6516 62.5478 40.4695 62.6233C40.2874 62.6987 40.1219 62.8093 39.9825 62.9488S39.7327 63.2537 39.6573 63.4359C39.582 63.6182 39.5433 63.8134 39.5434 64.0104H39.5434C39.5433 64.2891 39.6208 64.5623 39.7674 64.7994C39.9139 65.0364 40.1237 65.2278 40.373 65.3522L41.9725 66.152" stroke-width="1"></path><path fill="#f9faf8" stroke="#0f3f6c" stroke-linecap="round" stroke-linejoin="round" d="M40.6936 69.6672C40.8948 70.0711 41.2048 70.4108 41.5886 70.6481C41.9724 70.8853 42.4148 71.0107 42.866 71.0101H49.5793C50.0305 71.0101 50.4728 70.8845 50.8567 70.6474C51.2406 70.4102 51.5509 70.0708 51.7528 69.6672C51.8101 69.5528 51.8372 69.4255 51.8315 69.2977C51.8257 69.1698 51.7874 69.0455 51.72 68.9365C51.6527 68.8277 51.5586 68.7379 51.4467 68.6757C51.3347 68.6134 51.2088 68.5808 51.0808 68.5811H41.3645C41.2365 68.5811 41.1107 68.6138 40.999 68.676C40.8873 68.7384 40.7933 68.8281 40.7261 68.9371C40.6588 69.0459 40.6206 69.1701 40.6149 69.2979C40.6093 69.4258 40.6364 69.5529 40.6937 69.6672H40.6937Z" stroke-width="1"></path></svg>